<?xml version="1.0" encoding="utf-8"?>
<!-- Generator: Adobe Illustrator 25.0.1, SVG Export Plug-In . SVG Version: 6.00 Build 0)  -->
<svg version="1.1" id="Layer_1" xmlns="http://www.w3.org/2000/svg" xmlns:xlink="http://www.w3.org/1999/xlink" x="0px" y="0px"
	 viewBox="0 0 30 30" style="enable-background:new 0 0 30 30;" xml:space="preserve">
<style type="text/css">
	.st0{fill:#FFFFFF;}
</style>
<g id="XMLID_17_">
	<path id="XMLID_22_" d="M29.9,15c0-8.2-6.7-14.9-14.9-14.9S0.1,6.8,0.1,15c0,7.4,5.4,13.6,12.6,14.7V19.3H8.9V15h3.8v-3.3
		c0-3.7,2.2-5.8,5.6-5.8c1.6,0,3.3,0.3,3.3,0.3v3.7h-1.9c-1.9,0-2.4,1.1-2.4,2.3V15h4.1l-0.7,4.3h-3.5v10.4
		C24.4,28.6,29.9,22.4,29.9,15z"/>
	<path id="XMLID_18_" class="st0" d="M20.8,19.3l0.7-4.3h-4.1v-2.8c0-1.2,0.6-2.3,2.4-2.3h1.9V6.2c0,0-1.7-0.3-3.3-0.3
		c-3.4,0-5.6,2.1-5.6,5.8V15H8.9v4.3h3.8v10.4c0.8,0.1,1.5,0.2,2.3,0.2s1.6-0.1,2.3-0.2V19.3H20.8z"/>
</g>
</svg>
