<svg id="Layer_1" data-name="Layer 1" xmlns="http://www.w3.org/2000/svg" viewBox="0 0 72 72"><defs><style>.cls-1{fill:#f68c1f;}</style></defs><circle class="cls-1" cx="36" cy="36.14" r="33.5"/><path d="M36,5.14a31,31,0,1,1-31,31,31,31,0,0,1,31-31m0-5a36,36,0,1,0,36,36,36,36,0,0,0-36-36Z"/><path d="M60.43,38.36c.07-.73.12-1.47.12-2.22s0-1.49-.12-2.23l-5.35-1.34a19.7,19.7,0,0,0-.78-2.88l4-3.84A24.56,24.56,0,0,0,56,22l-5.3,1.51a20.11,20.11,0,0,0-2.12-2.11l1.52-5.3a24.21,24.21,0,0,0-3.86-2.23l-3.83,4a19.83,19.83,0,0,0-2.89-.78L38.22,11.7c-.73-.06-1.47-.11-2.22-.11s-1.49.05-2.22.11l-1.34,5.36a19.83,19.83,0,0,0-2.89.78l-3.83-4a24.21,24.21,0,0,0-3.86,2.23l1.52,5.3a20.11,20.11,0,0,0-2.12,2.11L16,22a24.56,24.56,0,0,0-2.23,3.85l4,3.84a19.7,19.7,0,0,0-.78,2.88l-5.35,1.34c-.07.74-.12,1.48-.12,2.23s.05,1.49.12,2.22l5.35,1.34a19.7,19.7,0,0,0,.78,2.88l-4,3.84A24.21,24.21,0,0,0,16,50.28l5.3-1.52a19.2,19.2,0,0,0,2.12,2.11l-1.52,5.31a24.94,24.94,0,0,0,3.86,2.22l3.83-4a19.81,19.81,0,0,0,2.89.77l1.34,5.36c.73.07,1.47.11,2.22.11s1.49,0,2.22-.11l1.34-5.36a19.81,19.81,0,0,0,2.89-.77l3.83,4a24.94,24.94,0,0,0,3.86-2.22l-1.52-5.31a19.2,19.2,0,0,0,2.12-2.11L56,50.28a24.21,24.21,0,0,0,2.23-3.86l-4-3.84a19.7,19.7,0,0,0,.78-2.88ZM36,52.1a16,16,0,1,1,16-16A16,16,0,0,1,36,52.1Z"/><polygon points="35 36.72 25.11 31.01 25.11 42.42 35 48.13 35 36.72"/><polygon points="36 34.98 45.89 29.27 36 23.57 26.11 29.27 36 34.98"/><polygon points="36 48.71 36 48.71 36 48.71 36 48.71"/><polygon points="37 36.72 37 48.13 46.89 42.42 46.89 31.01 37 36.72"/></svg>