<svg id="Layer_1" data-name="Layer 1" xmlns="http://www.w3.org/2000/svg" viewBox="0 0 72.18 72.18"><defs><style>.cls-1{fill:none;stroke:#000;stroke-linecap:round;stroke-miterlimit:10;stroke-width:5px;}</style></defs><path d="M36,5A31,31,0,1,1,5,36,31.07,31.07,0,0,1,36,5m0-5a36,36,0,1,0,36,36A36,36,0,0,0,36,0Z"/><path class="cls-1" d="M58.29,36.85l1.39-.76-1.39-.75A22.21,22.21,0,0,0,36.85,13.89l-.76-1.38-.75,1.38A22.22,22.22,0,0,0,13.89,35.34l-1.38.75,1.38.76A22.21,22.21,0,0,0,35.34,58.29l.75,1.39.76-1.39A22.2,22.2,0,0,0,58.29,36.85Z"/><path d="M43.42,20.85,31.11,33.7,28.76,51.33,41.07,38.49ZM39.6,37.22,33,34.06l8.13-8.48Z"/></svg>