<svg id="Layer_1" data-name="Layer 1" xmlns="http://www.w3.org/2000/svg" viewBox="0 0 72 72"><defs><style>.cls-1,.cls-2{fill:none;}.cls-1{stroke:#000;stroke-miterlimit:10;stroke-width:2px;}</style></defs><path d="M36,5.3a31,31,0,1,1-31,31,31,31,0,0,1,31-31m0-5a36,36,0,1,0,36,36A36,36,0,0,0,36,.3Z"/><line class="cls-1" x1="22.95" y1="22.19" x2="45.61" y2="22.19"/><line class="cls-1" x1="22.95" y1="29.33" x2="36" y2="29.33"/><line class="cls-1" x1="22.95" y1="36.46" x2="36" y2="36.46"/><line class="cls-1" x1="22.95" y1="43.6" x2="39.32" y2="43.6"/><line class="cls-1" x1="22.95" y1="50.74" x2="45.61" y2="50.74"/><path class="cls-2" d="M46.69,43.16a7.86,7.86,0,0,0,0-15.57v2.74H39.58A7.75,7.75,0,0,0,37.87,34h8.82v4H38.21a7.71,7.71,0,0,0,1.84,2.94,9.45,9.45,0,0,0,.76.66h5.88Z"/><path d="M46.69,27.59a7.86,7.86,0,0,0-6.64,2.22,5.8,5.8,0,0,0-.47.52h7.11Z"/><path d="M39.34,45.6a8.18,8.18,0,0,1-.69-.45"/><path d="M46.69,43.16V41.6H40.81A7.91,7.91,0,0,0,46.69,43.16Z"/><path d="M47.39,34H37.88a7.4,7.4,0,0,0,.36,4h9.15Z"/><path class="cls-2" d="M46.69,27.59a7.86,7.86,0,0,0-6.64,2.22,5.8,5.8,0,0,0-.47.52A7.75,7.75,0,0,0,37.87,34a7.9,7.9,0,0,0,.34,4,7.71,7.71,0,0,0,1.84,2.94,9.45,9.45,0,0,0,.76.66,7.81,7.81,0,0,0,8.53.68V28.46A7.94,7.94,0,0,0,46.69,27.59Z"/><path class="cls-2" d="M53.34,33.89v3A8.18,8.18,0,0,0,53.34,33.89Z"/><path class="cls-2" d="M39.34,45.6a8.18,8.18,0,0,1-.69-.45,12.44,12.44,0,0,1-1.53-1.29A12,12,0,0,1,49.34,24V15.53H20V55.72H49.34V46.78A12,12,0,0,1,39.34,45.6Z"/><path d="M49.34,46.78v8.94H20V15.53H49.34V24a11.81,11.81,0,0,1,4,2.22V14.85A3.32,3.32,0,0,0,50,11.53H19.35A3.32,3.32,0,0,0,16,14.85V56.4a3.32,3.32,0,0,0,3.32,3.32H50a3.32,3.32,0,0,0,3.32-3.32V46l-.83-.83A12.08,12.08,0,0,1,49.34,46.78Z"/><path d="M62.3,49.14l-6.87-6.88A12,12,0,0,0,54.1,26.88c-.24-.24-.5-.47-.76-.69a11.81,11.81,0,0,0-4-2.22A12,12,0,0,0,37.12,43.86a12.44,12.44,0,0,0,1.53,1.29,8.18,8.18,0,0,0,.69.45,12,12,0,0,0,13.17-.41l.83.83,6,6a1.59,1.59,0,0,0,2.22.2l.9-.9A1.59,1.59,0,0,0,62.3,49.14Zm-9-12.29A7.87,7.87,0,0,1,40.81,41.6a9.45,9.45,0,0,1-.76-.66A7.71,7.71,0,0,1,38.21,38a7.9,7.9,0,0,1-.34-4,7.75,7.75,0,0,1,1.71-3.67,5.8,5.8,0,0,1,.47-.52,7.86,7.86,0,0,1,6.64-2.22,8.06,8.06,0,0,1,4.49,2.22,7.86,7.86,0,0,1,2.16,4.08A8.18,8.18,0,0,1,53.34,36.85Z"/></svg>