<svg id="Layer_1" data-name="Layer 1" xmlns="http://www.w3.org/2000/svg" viewBox="0 0 71.8 71.8"><path d="M35.91,4.66A30.92,30.92,0,1,1,5,35.58,31,31,0,0,1,35.91,4.66m0-5A35.92,35.92,0,1,0,71.83,35.58,35.92,35.92,0,0,0,35.91-.34Z"/><path d="M38.91,29.18H36.5v7.35a2.23,2.23,0,1,1-1.2,0V29.18H33.08c0,7-5.79,11.49-5.79,11.49A38.87,38.87,0,0,1,28.8,52H27.29V67.69H44.51V52H43a53.11,53.11,0,0,1,1.51-11.37A14.3,14.3,0,0,1,38.91,29.18Z"/><path d="M57,27.43a3.19,3.19,0,1,0-3-4.34H38.14V21.85H33.66v1.24H16.35a3.19,3.19,0,1,0-3,4.34,3.17,3.17,0,0,0,3.06-2.34H26.78A21.92,21.92,0,0,0,14.15,42.72H12.79V47.2h4.48V42.72h-1.1a19.89,19.89,0,0,1,17.49-17.5v1.11h4.48V25.22a19.89,19.89,0,0,1,17.49,17.5h-.87V47.2h4.47V42.72H57.65A21.92,21.92,0,0,0,45,25.09h8.91A3.18,3.18,0,0,0,57,27.43Z"/></svg>