<svg id="Layer_1" data-name="Layer 1" xmlns="http://www.w3.org/2000/svg" viewBox="0 0 71.76 71.76"><defs><style>.cls-1{fill:none;stroke:#000;stroke-linecap:round;stroke-linejoin:round;stroke-width:5px;}</style></defs><path d="M35.87,5A30.83,30.83,0,1,1,5,35.83,30.86,30.86,0,0,1,35.87,5m0-5A35.83,35.83,0,1,0,71.7,35.83,35.83,35.83,0,0,0,35.87,0Z"/><polyline class="cls-1" points="32.49 66.47 32.49 42.53 19.61 42.53"/><polyline class="cls-1" points="43.99 66.47 43.99 34.35 53.31 34.35"/><polyline class="cls-1" points="35.9 2.86 35.9 18.22 62.92 18.22"/><polyline class="cls-1" points="13.52 12.7 13.52 29.08 26.36 29.08"/><circle class="cls-1" cx="14.92" cy="42.53" r="4.69"/><circle class="cls-1" cx="58.23" cy="34.35" r="4.69"/><circle class="cls-1" cx="31.68" cy="29.08" r="4.69"/></svg>