<svg id="Layer_1" data-name="Layer 1" xmlns="http://www.w3.org/2000/svg" viewBox="0 0 72 72"><path d="M36,5.32A30.84,30.84,0,1,1,5.16,36.16,30.88,30.88,0,0,1,36,5.32m0-5A35.84,35.84,0,1,0,71.84,36.16,35.84,35.84,0,0,0,36,.32Z"/><path d="M60.6,26.79,36.12,16.54a.28.28,0,0,0-.13,0,.31.31,0,0,0-.13,0L11.38,26.79a.31.31,0,0,0-.2.3.33.33,0,0,0,.19.31L35.85,38.85a.34.34,0,0,0,.28,0L60.61,27.4a.33.33,0,0,0,.19-.31A.31.31,0,0,0,60.6,26.79Z"/><path d="M36.56,39.75a1.28,1.28,0,0,1-.57.13,1.24,1.24,0,0,1-.56-.13L21.84,33.4c-3.41,4.62-5.68,8.42-5.68,8.42S26,40.86,36,51.11c10.41-9.62,19.86-9.29,19.86-9.29a90.14,90.14,0,0,0-5.45-8.56Z"/><path d="M60.22,41.66a1.86,1.86,0,0,0-1.36-1.78v-9.6a.5.5,0,0,0-.5-.5.5.5,0,0,0-.5.5v9.6a1.85,1.85,0,0,0-.06,3.55l-1,6.32h3.1l-1-6.32A1.84,1.84,0,0,0,60.22,41.66Z"/></svg>