<svg id="Layer_1" data-name="Layer 1" xmlns="http://www.w3.org/2000/svg" viewBox="0 0 72 72"><defs><style>.cls-1{fill:#191718;fill-rule:evenodd;}</style></defs><path class="cls-1" d="M36,1.1A35.79,35.79,0,0,0,24.69,70.84c1.79.32,2.35-.74,2.35-1.69s0-3.22,0-6.21c-9.95,2.16-12-4.71-12-4.71-1.63-4.13-4-5.24-4-5.24-3.25-2.21.24-2.17.24-2.17,3.59.25,5.49,3.69,5.49,3.69,3.19,5.46,8.37,3.88,10.41,3a7.61,7.61,0,0,1,2.27-4.78c-7.94-.91-16.3-4-16.3-17.69a13.82,13.82,0,0,1,3.69-9.6,12.84,12.84,0,0,1,.35-9.47s3-1,9.83,3.67a34.05,34.05,0,0,1,17.92,0c6.83-4.63,9.83-3.67,9.83-3.67a12.86,12.86,0,0,1,.36,9.47A13.81,13.81,0,0,1,58.83,35c0,13.75-8.37,16.77-16.34,17.66,1.28,1.1,2.45,3.25,2.45,6.59v9.9c0,1,.58,2,2.39,1.67A35.79,35.79,0,0,0,36,1.1Z"/></svg>