<svg id="Layer_1" data-name="Layer 1" xmlns="http://www.w3.org/2000/svg" viewBox="0 0 72 72"><path d="M36,5A31,31,0,1,1,5,36,31,31,0,0,1,36,5m0-5A36,36,0,1,0,72,36,36,36,0,0,0,36,0Z"/><path d="M36.59,14.17l-6.85,4.57a.58.58,0,0,1-.9-.48V15.49a.58.58,0,0,0-.57-.58h-5a.58.58,0,0,0-.58.58v7.64a.58.58,0,0,1-.25.48L14.1,29.17a.58.58,0,0,0,.32,1.06h3.73a.57.57,0,0,1,.57.58V53.42a.58.58,0,0,0,.58.58h4.36a.58.58,0,0,0,.57-.58V36.67a.58.58,0,0,1,.58-.58h8.45a.58.58,0,0,1,.58.58V53.42a.58.58,0,0,0,.58.58h20.1a.57.57,0,0,0,.57-.58V30.81a.58.58,0,0,1,.58-.58H59.4a.58.58,0,0,0,.32-1.06l-22.49-15A.57.57,0,0,0,36.59,14.17ZM49.83,40H47a.58.58,0,0,1-.58-.58V36.67a.58.58,0,0,1,.58-.58h2.81a.58.58,0,0,1,.58.58v2.74A.58.58,0,0,1,49.83,40Zm-5.39-3.32v2.74a.58.58,0,0,1-.58.58H41.19a.58.58,0,0,1-.58-.58V36.67a.58.58,0,0,1,.58-.58h2.67A.58.58,0,0,1,44.44,36.67Zm-3.83,8.64V42.57a.58.58,0,0,1,.58-.58h2.67a.58.58,0,0,1,.58.58v2.74a.57.57,0,0,1-.58.57H41.19A.57.57,0,0,1,40.61,45.31Zm5.83,0V42.57A.58.58,0,0,1,47,42h2.81a.58.58,0,0,1,.58.58v2.74a.57.57,0,0,1-.58.57H47A.57.57,0,0,1,46.44,45.31Z"/></svg>