<svg id="Layer_1" data-name="Layer 1" xmlns="http://www.w3.org/2000/svg" viewBox="0 0 72 72"><defs><style>.cls-1{fill:#010101;}</style></defs><path id="LinkedIn_alt_" data-name="LinkedIn (alt)" class="cls-1" d="M66.67,0H5.33A5.24,5.24,0,0,0,0,5.15V66.8A5.24,5.24,0,0,0,5.33,72H66.67A5.25,5.25,0,0,0,72,66.8V5.15A5.26,5.26,0,0,0,66.67,0ZM21.83,60.23H11V27.74H21.83ZM16.39,23.3h-.06c-3.65,0-6-2.49-6-5.62s2.43-5.6,6.16-5.6,6,2.42,6.07,5.6S20.19,23.3,16.39,23.3ZM61,60.23H50.15V42.85c0-4.37-1.57-7.35-5.5-7.35a5.92,5.92,0,0,0-5.57,4,7.24,7.24,0,0,0-.37,2.63V60.23H27.84s.15-29.45,0-32.49H38.71v4.6A10.79,10.79,0,0,1,48.5,27C55.66,27,61,31.6,61,41.59l0,18.64ZM38.64,32.46a.86.86,0,0,1,.07-.1v.1Z"/></svg>