<svg id="Layer_1" data-name="Layer 1" xmlns="http://www.w3.org/2000/svg" viewBox="0 0 72 72"><defs><style>.cls-1{fill:#fff;}.cls-2{fill:#231f20;}</style></defs><path class="cls-1" d="M36,69.5A33.5,33.5,0,1,1,69.5,36,33.54,33.54,0,0,1,36,69.5Z"/><path class="cls-2" d="M36,5A31,31,0,1,1,5,36,31,31,0,0,1,36,5m0-5A36,36,0,1,0,72,36,36,36,0,0,0,36,0Z"/><path class="cls-2" d="M55.68,19.76H16.32a2.49,2.49,0,0,0-2.5,2.5V49.74a2.49,2.49,0,0,0,2.5,2.5H55.68a2.49,2.49,0,0,0,2.5-2.5V22.26A2.49,2.49,0,0,0,55.68,19.76Zm-36.86,9,10.49,8.36L18.82,44.55Zm17.06,7.21-14-11.18H50.09ZM31.75,39l1.29,1a4.67,4.67,0,0,0,5.66,0l1.52-1.2,11.61,8.36H20.21ZM42.68,37l10.5-8.26V44.52Z"/></svg>