<svg id="Layer_1" data-name="Layer 1" xmlns="http://www.w3.org/2000/svg" viewBox="0 0 72 72"><defs><style>.cls-1{fill:#231f20;}</style></defs><path class="cls-1" d="M36.07,5a31,31,0,1,1-31,31,31,31,0,0,1,31-31m0-5a36,36,0,1,0,36,36,36,36,0,0,0-36-36Z"/><path d="M60.43,38.22c.07-.73.12-1.47.12-2.22s0-1.49-.12-2.22l-5.35-1.34a19.83,19.83,0,0,0-.78-2.89l4-3.83A24.21,24.21,0,0,0,56,21.86l-5.3,1.52a19.29,19.29,0,0,0-2.12-2.12L50.14,16a24.21,24.21,0,0,0-3.86-2.23l-3.83,4a19.83,19.83,0,0,0-2.89-.78l-1.34-5.35c-.73-.07-1.47-.12-2.22-.12s-1.49.05-2.22.12l-1.34,5.35a19.83,19.83,0,0,0-2.89.78l-3.83-4A24.21,24.21,0,0,0,21.86,16l1.52,5.3a19.29,19.29,0,0,0-2.12,2.12L16,21.86a24.21,24.21,0,0,0-2.23,3.86l4,3.83a19.83,19.83,0,0,0-.78,2.89l-5.35,1.34c-.07.73-.12,1.47-.12,2.22s.05,1.49.12,2.22l5.35,1.35a20.05,20.05,0,0,0,.78,2.88l-4,3.83A24.21,24.21,0,0,0,16,50.14l5.3-1.52a19.29,19.29,0,0,0,2.12,2.12L21.86,56a24.21,24.21,0,0,0,3.86,2.23l3.83-4a19.83,19.83,0,0,0,2.89.78l1.34,5.35c.73.07,1.47.12,2.22.12s1.49,0,2.22-.12l1.34-5.35a19.83,19.83,0,0,0,2.89-.78l3.83,4A24.21,24.21,0,0,0,50.14,56l-1.52-5.3a19.29,19.29,0,0,0,2.12-2.12L56,50.14a24.21,24.21,0,0,0,2.23-3.86l-4-3.83a20.05,20.05,0,0,0,.78-2.88ZM36,52A16,16,0,1,1,52,36,16,16,0,0,1,36,52Z"/><polygon points="35 36.58 25.11 30.87 25.11 42.28 35 47.99 35 36.58"/><polygon points="36 34.84 45.89 29.14 36 23.43 26.11 29.14 36 34.84"/><polygon points="36 48.57 36 48.57 36 48.57 36 48.57"/><polygon points="37 36.58 37 47.99 46.89 42.28 46.89 30.87 37 36.58"/></svg>