<svg id="Layer_1" data-name="Layer 1" xmlns="http://www.w3.org/2000/svg" viewBox="0 0 71.83 71.83"><defs><style>.cls-1{fill:none;}</style></defs><path d="M35.87,5.34A30.87,30.87,0,1,1,5,36.2,30.9,30.9,0,0,1,35.87,5.34m0-5A35.87,35.87,0,1,0,71.74,36.2,35.87,35.87,0,0,0,35.87.34Z"/><path class="cls-1" d="M49.52,53l5.36,5.15L59,53.87l-5.42-5.21a20.35,20.35,0,0,1-4,4.3Z"/><path class="cls-1" d="M29.67,45.17c1.42-.17,2.86-.29,4.31-.34V38h-5.6A30.79,30.79,0,0,0,29.67,45.17Z"/><path class="cls-1" d="M34,24.62V18.55a30.43,30.43,0,0,0-3.27,5.82C31.79,24.49,32.88,24.57,34,24.62Z"/><path class="cls-1" d="M28.4,34.23H34V28.39c-1.53-.06-3-.19-4.53-.37A29.53,29.53,0,0,0,28.4,34.23Z"/><path class="cls-1" d="M42.28,28c-1.49.18-3,.31-4.53.37v5.84h5.59A30.2,30.2,0,0,0,42.28,28Z"/><path class="cls-1" d="M47.12,34.23h6.5a18,18,0,0,0-2.94-8c-1.52.47-3.07.86-4.64,1.18A34.16,34.16,0,0,1,47.12,34.23Z"/><path class="cls-1" d="M34,53.86V48.6c-1,0-2,.1-2.92.2A29.84,29.84,0,0,0,34,53.86Z"/><path class="cls-1" d="M37.75,18.55v6.07c1.1-.05,2.19-.13,3.27-.25A29.9,29.9,0,0,0,37.75,18.55Z"/><path class="cls-1" d="M43.35,38h-.57l.56.17C43.34,38.12,43.35,38.06,43.35,38Z"/><path class="cls-1" d="M37.75,44.83c.5,0,1,.05,1.48.09l-1.48-4.09Z"/><path class="cls-1" d="M43.25,39.2,39.47,38H37.8l2.52,7c.58,0,1.17.1,1.74.17A30.07,30.07,0,0,0,43.25,39.2Z"/><polygon class="cls-1" points="45.95 50.92 45.96 50.92 45.95 50.92 45.95 50.92"/><path class="cls-1" d="M44.56,49.37A34.23,34.23,0,0,1,43,52.54h0c.51-.23,1-.49,1.5-.76l.85-2.23Z"/><path class="cls-1" d="M46.15,49.72l.62.6.48-.36C46.89,49.86,46.51,49.8,46.15,49.72Z"/><path class="cls-1" d="M53.64,38H47.13c0,.45-.06.89-.11,1.34l6,1.89A18.12,18.12,0,0,0,53.64,38Z"/><path class="cls-1" d="M45.82,45.76c1.48.3,2.94.67,4.38,1.09.2-.27.39-.55.58-.84l-1.15-1.1,2.34-1a16.33,16.33,0,0,0,.71-1.72l-5.76-1.82A34.33,34.33,0,0,1,45.82,45.76Z"/><path class="cls-1" d="M24.49,50a18.16,18.16,0,0,0,4.21,2.6,33.29,33.29,0,0,1-1.52-3.19C26.27,49.54,25.37,49.73,24.49,50Z"/><path class="cls-1" d="M24.6,38H18.1a17.72,17.72,0,0,0,3.44,8.84c1.43-.42,2.89-.79,4.38-1.09A34.14,34.14,0,0,1,24.6,38Z"/><path class="cls-1" d="M25.7,27.41a47.74,47.74,0,0,1-4.64-1.18,17.73,17.73,0,0,0-2.94,8h6.49A34.91,34.91,0,0,1,25.7,27.41Z"/><path class="cls-1" d="M28.7,19.85a17.84,17.84,0,0,0-4.92,3.23c1,.27,2,.51,3.1.71A35.15,35.15,0,0,1,28.7,19.85Z"/><path class="cls-1" d="M37.75,53.86a30.29,30.29,0,0,0,2.9-5l0-.06c-1-.1-1.91-.16-2.88-.2Z"/><path class="cls-1" d="M48,23.08A17.84,17.84,0,0,0,43,19.85a35.08,35.08,0,0,1,1.81,3.94C45.9,23.59,46.94,23.35,48,23.08Z"/><path d="M37.75,53.86V48.6c1,0,1.93.1,2.88.2l-1.4-3.88c-.49,0-1-.07-1.48-.09v-4l-1.8-5L42.78,38h.57c0,.05,0,.11,0,.17L47,39.35c0-.45.09-.89.11-1.34h6.51A18.12,18.12,0,0,1,53,41.24l3.61,1.14A21.63,21.63,0,0,0,54.34,25,21.11,21.11,0,0,0,52,21.81a21.58,21.58,0,0,0-12.24-6.88,20.24,20.24,0,0,0-2.48-.3c-.47,0-.94-.06-1.42-.06s-1,0-1.43.06a20.08,20.08,0,0,0-2.47.3,21.58,21.58,0,0,0-12.24,6.88A21.89,21.89,0,0,0,17.39,25,21.64,21.64,0,0,0,32,57.48a22.22,22.22,0,0,0,2.47.3c.47,0,1,0,1.43,0s1,0,1.42,0a22.4,22.4,0,0,0,2.48-.3,22.14,22.14,0,0,0,3.63-1l-2.75-7.61A30.29,30.29,0,0,1,37.75,53.86ZM53.62,34.23h-6.5A34.16,34.16,0,0,0,46,27.41c1.57-.32,3.12-.71,4.64-1.18A18,18,0,0,1,53.62,34.23ZM48,23.08c-1,.27-2.06.51-3.11.71A35.08,35.08,0,0,0,43,19.85,17.84,17.84,0,0,1,48,23.08ZM37.75,18.55A29.9,29.9,0,0,1,41,24.37c-1.08.12-2.17.2-3.27.25Zm0,9.84c1.53-.06,3-.19,4.53-.37a30.2,30.2,0,0,1,1.06,6.21H37.75Zm-9-8.54a35.15,35.15,0,0,0-1.82,3.94c-1.05-.2-2.08-.44-3.1-.71A17.84,17.84,0,0,1,28.7,19.85Zm-7.64,6.38a47.74,47.74,0,0,0,4.64,1.18,34.91,34.91,0,0,0-1.09,6.82H18.12A17.73,17.73,0,0,1,21.06,26.23ZM18.1,38h6.5a34.14,34.14,0,0,0,1.32,7.75c-1.49.3-3,.67-4.38,1.09A17.72,17.72,0,0,1,18.1,38Zm6.39,12c.88-.23,1.78-.42,2.69-.59a33.29,33.29,0,0,0,1.52,3.19A18.16,18.16,0,0,1,24.49,50ZM34,53.86a29.84,29.84,0,0,1-2.92-5.06c1-.1,1.94-.16,2.92-.2Zm0-9c-1.45.05-2.89.17-4.31.34A30.79,30.79,0,0,1,28.38,38H34Zm0-10.6H28.4A29.53,29.53,0,0,1,29.45,28c1.49.18,3,.31,4.53.37Zm0-9.61c-1.1-.05-2.19-.13-3.27-.25A30.43,30.43,0,0,1,34,18.55Z"/><polygon points="37.8 38.01 39.47 38.01 37.58 37.41 37.8 38.01"/><path d="M54.6,42.8l-1.92-.61A16.33,16.33,0,0,1,52,43.91Z"/><path d="M46,50.92h0l-2,5.34a21.18,21.18,0,0,0,4.79-2.68Z"/><path d="M43.64,54.19l.91-2.4c-.49.27-1,.53-1.5.76Z"/><polygon points="58.95 53.87 49.63 44.91 54.59 42.8 37.58 37.41 40.32 45 40.32 45 43.04 52.54 43.04 52.54 43.64 54.19 45.4 49.56 45.4 49.56 45.55 49.15 48.09 51.59 49.52 52.96 49.52 52.96 54.88 58.11 58.95 53.87"/><path d="M54.1,47.82a21.22,21.22,0,0,0,2.24-4.68l-4.93,2.1Z"/><path class="cls-1" d="M43.62,57.07l.31-.81-.53.21Z"/><path class="cls-1" d="M57.47,42.66l-.87-.28c-.08.26-.17.51-.26.76Z"/><path class="cls-1" d="M37.75,38v2.82l1.48,4.09,1.09.08L37.8,38Z"/><path class="cls-1" d="M43.25,39.2c0-.34.07-.68.09-1L42.78,38H39.47Z"/><path class="cls-1" d="M46.15,49.72l-.75-.16-.85,2.23c.48-.27,1-.56,1.4-.87h0c.27-.19.55-.39.81-.6Z"/><path class="cls-1" d="M43,52.56h0Z"/><path class="cls-1" d="M50.78,46A18,18,0,0,0,52,43.91l-2.34,1Z"/><path class="cls-1" d="M52.68,42.19c.11-.31.22-.63.31-.95l-6-1.89c0,.34-.06.68-.1,1Z"/><path class="cls-1" d="M40.68,48.8h0l0,.06Z"/><path d="M45.4,49.56l.75.16-.6-.57Z"/></svg>