<?xml version="1.0" encoding="UTF-8" standalone="no"?>
<svg
   xmlns:dc="http://purl.org/dc/elements/1.1/"
   xmlns:cc="http://creativecommons.org/ns#"
   xmlns:rdf="http://www.w3.org/1999/02/22-rdf-syntax-ns#"
   xmlns:svg="http://www.w3.org/2000/svg"
   xmlns="http://www.w3.org/2000/svg"
   xmlns:sodipodi="http://sodipodi.sourceforge.net/DTD/sodipodi-0.dtd"
   xmlns:inkscape="http://www.inkscape.org/namespaces/inkscape"
   width="600"
   height="300"
   viewBox="0 0 158.75 79.375002"
   version="1.1"
   id="svg8"
   inkscape:version="1.0.1 (c497b03c, 2020-09-10)"
   sodipodi:docname="mccotter_logo.svg">
  <defs
     id="defs2" />
  <sodipodi:namedview
     id="base"
     pagecolor="#ffffff"
     bordercolor="#666666"
     borderopacity="1.0"
     inkscape:pageopacity="0.0"
     inkscape:pageshadow="2"
     inkscape:zoom="1.0513599"
     inkscape:cx="337.68954"
     inkscape:cy="96.417803"
     inkscape:document-units="mm"
     inkscape:current-layer="layer1"
     inkscape:document-rotation="0"
     showgrid="false"
     units="px"
     inkscape:window-width="1252"
     inkscape:window-height="755"
     inkscape:window-x="1920"
     inkscape:window-y="303"
     inkscape:window-maximized="0" />
  <metadata
     id="metadata5">
    <rdf:RDF>
      <cc:Work
         rdf:about="">
        <dc:format>image/svg+xml</dc:format>
        <dc:type
           rdf:resource="http://purl.org/dc/dcmitype/StillImage" />
        <dc:title></dc:title>
      </cc:Work>
    </rdf:RDF>
  </metadata>
  <g
     inkscape:label="Layer 1"
     inkscape:groupmode="layer"
     id="layer1">
    <path
       style="fill:#000000;stroke-width:0.264999"
       id="path839"
       d="m 37.75634,40.26088 c -1.455462,0.512678 -4.530926,1.904397 -5.28371,3.799861 -0.06293,0.158449 -0.07925,0.331637 -0.118872,0.497454 0.02986,0.155078 0.01749,0.324715 0.08957,0.465233 0.340532,0.663863 1.258467,0.73814 1.844,0.392925 1.268323,-0.747766 2.503975,-1.549615 3.755962,-2.324423 0.475279,-0.678715 0.54365,-1.414841 0.05475,-2.091402 0.170108,0.322186 -0.184277,-0.241059 -0.125315,-0.192302 1.217824,1.00705 -2.277147,1.63834 -3.104912,2.137318 -0.132683,0.07998 0.27405,-0.14477 0.40789,-0.222798 1.338186,-0.780158 2.672011,-1.567775 4.008017,-2.351664 2.633331,-2.147258 4.794874,-4.795951 6.929567,-7.421449 1.150683,-1.496163 0.594444,-0.755681 1.572876,-2.084766 0.149447,-0.203004 0.291933,-0.411337 0.448622,-0.608806 0.07055,-0.0889 0.335534,-0.295844 0.232114,-0.2491 -3.646781,1.648246 -2.969922,0.659972 -3.846208,2.08076 -0.920875,2.080033 -1.537798,4.279622 -2.094807,6.479966 -0.216442,1.238912 -1.157997,4.045686 -0.221779,5.159796 0.116779,0.13897 0.300728,0.203374 0.451093,0.305062 2.145782,0.135787 4.839917,-1.937724 5.709957,-4.022596 0.176242,-0.07384 0.04558,-0.893704 0.125415,-0.956061 0.03342,-0.02611 0.07994,0.03342 0.122325,0.03496 0.04645,0.0016 0.09139,-0.01699 0.137084,-0.02551 1.151305,-0.700744 1.421918,-0.863997 -3.02921,1.75863 -0.156538,0.09223 0.319318,-0.173437 0.47938,-0.259406 0.214858,-0.1154 0.434552,-0.222091 0.645375,-0.344704 4.093694,-2.380893 2.833896,-1.362197 4.584522,-2.862146 0.200303,-0.24216 1.242224,-1.17955 1.244367,-1.522976 7.94e-4,-0.106982 -0.03758,-0.33696 -0.134403,-0.29146 -1.299011,0.610426 -2.499796,1.411105 -3.749696,2.116659 -0.278244,0.81108 -0.816745,2.780226 -0.140573,3.485121 0.114673,0.119544 0.301363,0.137638 0.452043,0.206459 2.97025,-1.661109 3.164573,-1.074692 4.278731,-2.696646 0.633788,-0.922645 0.723384,-1.23467 1.711499,-1.847914 1.747637,-0.95522 -0.624932,0.333963 -2.409081,1.447538 -0.125246,0.07817 0.350351,-0.180038 0.389133,-0.04956 0.07704,0.259196 -0.0136,0.540763 -0.0305,0.810635 0.02365,0.181422 -0.04508,0.402836 0.07099,0.544261 0.125355,0.152736 0.380974,0.313611 0.552321,0.215215 1.454647,-0.835329 2.895854,-1.744295 4.115628,-2.895782 0.592764,-0.559581 0.794742,-1.423628 1.205688,-2.127631 1.785458,-3.058727 1.923933,-3.21691 3.881014,-6.321785 1.805228,-2.807888 3.679105,-5.571223 5.568386,-8.323022 0.652018,-0.949687 1.336918,-2.090686 2.14794,-2.941408 -1.354261,0.768752 -2.838,1.344536 -4.062785,2.306256 -0.444736,0.349215 -0.52201,1.003249 -0.787681,1.502408 -0.383069,0.719731 -0.771659,1.436511 -1.158507,2.154217 -0.93227,1.729605 -1.89635,3.442338 -2.801284,5.186402 -0.437753,0.843674 -0.845896,1.702388 -1.268843,2.553579 -1.247222,2.779098 -2.116342,5.690772 -2.715946,8.673459 -0.258791,1.287346 -0.455213,2.586461 -0.676523,3.880776 -2.686908,15.714229 1.268275,-7.225125 -1.461474,8.579599 -0.247507,1.356966 -0.495017,2.713934 -0.742524,4.070903 0,0 2.494822,-1.217504 2.494822,-1.217504 v 0 c 0.222623,-1.344941 0.445246,-2.689884 0.66787,-4.034827 1.244465,-7.200389 2.375622,-14.539632 5.346654,-21.272685 0.408189,-0.839886 0.796457,-1.689751 1.224564,-2.519662 1.317323,-2.553713 2.773007,-5.059508 4.315772,-7.483583 0.349805,-0.549633 1.701252,-1.407736 1.086852,-1.624466 -1.033764,-0.364662 -2.110353,0.59414 -3.16553,0.89121 0.08554,0.445229 0.0506,0.127036 -0.460346,1.007782 -0.310674,0.535519 -0.63328,1.064058 -0.95595,1.592437 -1.678715,2.748918 -3.437229,5.447202 -5.181029,8.154977 -1.265398,1.943121 -2.961105,4.576974 -4.287586,6.499392 -0.527788,0.7649 -2.13941,1.487032 -1.628198,2.263108 0.489024,0.742397 1.632183,-0.722458 2.490468,-0.954082 0.135763,-0.03664 -0.111668,0.403852 -0.240195,0.346803 -0.145835,-0.06474 -0.03386,-0.317315 -0.05079,-0.47597 0.01939,-0.354065 0.0905,-0.834141 -0.07011,-1.177446 -0.139914,-0.299064 -0.406207,-0.430165 -0.707866,-0.274577 -2.514508,1.296911 -2.80134,1.488004 -4.344596,2.452582 -0.496015,0.396716 -0.506831,0.358661 -0.902216,0.862547 -0.229058,0.291917 -0.522261,0.787098 -0.765487,1.066345 -0.141709,0.162697 -0.662901,0.536937 -0.465572,0.449683 1.050687,-0.464579 2.036853,-1.063178 3.055279,-1.594766 -0.09299,0.04437 -0.182216,0.168548 -0.278964,0.133112 -0.125349,-0.04591 -0.200967,-0.193987 -0.237656,-0.322339 -0.271283,-0.948986 0.172659,-1.997112 0.637934,-2.797791 -1.147202,0.551799 -2.294401,1.103595 -3.441602,1.655392 -0.01794,-0.07173 0.0199,-0.209182 -0.0538,-0.215207 -0.07839,-0.0064 -0.07855,0.136575 -0.124151,0.200663 -0.293902,0.413075 -0.64966,0.778787 -1.025379,1.117242 -0.204478,0.157703 -0.844442,0.588503 -0.613434,0.473107 0.908317,-0.453729 1.775862,-0.985073 2.655051,-1.492948 0.33161,-0.191561 -0.690234,0.333285 -1.02335,0.522221 -1.246486,0.706983 -2.489078,1.420844 -3.729249,2.138849 -0.06044,0.03499 -0.114612,0.07984 -0.171916,0.119753 -0.239392,0.338299 0.02178,0.734455 -0.221168,1.106665 -0.21699,0.431533 -0.470352,0.836737 -0.811863,1.184894 -0.14482,0.147638 -0.653629,0.497986 -0.467455,0.407937 6.680374,-3.231205 3.45926,-1.826958 2.515865,-1.420037 -0.120248,-0.02708 -0.263012,-0.0061 -0.360744,-0.08126 -0.327059,-0.251356 -0.398836,-0.796483 -0.418335,-1.148334 -0.06782,-1.223647 0.276709,-2.433201 0.524838,-3.615518 0.611833,-2.248881 1.286036,-4.512706 2.430169,-6.557155 0.679484,-1.710182 0.434181,-0.763564 -3.48356,1.170175 -0.06883,0.03397 -0.06223,0.14064 -0.100531,0.207153 -0.246362,0.42781 -0.645099,1.036545 -0.906831,1.409063 -0.267057,0.380092 -0.548229,0.750069 -0.822343,1.125103 -2.150856,2.716247 -4.399994,5.424617 -7.265188,7.42083 0.901872,-0.516113 1.804548,-1.030825 2.705618,-1.548334 0.113956,-0.06545 -0.230738,0.125923 -0.344252,0.192135 -1.225248,0.714648 -2.497741,1.354704 -3.671969,2.150404 -0.140343,0.0951 0.190534,0.457985 0.258969,0.514561 0.450442,0.483413 0.153844,1.087824 -0.24143,1.508781 1.000691,-0.548788 1.993339,-1.112509 3.002073,-1.646367 0.143648,-0.07602 -0.259074,0.199808 -0.404788,0.271794 -0.243293,0.120189 -0.812557,0.279328 -0.999056,-0.0614 -0.04784,-0.0874 -0.02233,-0.198011 -0.03349,-0.297018 0.177242,-0.506701 0.422399,-0.893159 0.813451,-1.272506 0.143941,-0.139631 0.639884,-0.477618 0.46156,-0.385879 -0.875167,0.450229 -4.169246,2.376078 -2.706171,1.521518 0,0 3.244704,-2.456711 3.244704,-2.456711 z" />
    <path
       style="fill:#000000;stroke-width:0.264999"
       id="path841"
       d="m 49.495582,32.611747 c 0.751973,-0.254407 1.497203,-0.529682 2.255917,-0.76322 1.343634,-0.41358 2.698229,-0.790731 4.04976,-1.177713 5.072682,-1.452454 8.477128,-2.41668 13.732309,-3.758274 5.517018,-1.408438 9.216914,-2.233753 14.696276,-3.501048 7.285556,-1.637282 3.849264,-0.878941 10.306968,-2.283659 0,0 2.022186,-1.542265 2.022186,-1.542265 v 0 c -6.883796,1.752556 -3.238576,0.830057 -10.936649,2.7636 -10.980936,2.688611 -21.972696,5.336834 -33.001225,7.823679 0,0 -3.125542,2.4389 -3.125542,2.4389 z" />
    <path
       style="fill:#000000;stroke-width:0.264999"
       id="path847"
       d="m 93.828027,14.116116 c -1.239663,-2.978754 -3.698558,-0.217789 -5.668518,0.92678 -0.728374,1.147462 -0.904219,2.309956 -0.318474,3.548857 0.290306,0.419107 0.668933,0.6158 1.147231,0.732695 0,0 3.30346,-2.331216 3.30346,-2.331216 v 0 c -0.39049,-0.0087 -0.719436,-0.05442 -0.987057,-0.374756 -0.576829,-1.06481 -0.310531,-2.165795 0.516377,-3.023513 -0.983512,0.528405 -1.967024,1.056809 -2.950538,1.585214 0.135347,-0.05789 0.259386,-0.160919 0.40604,-0.173665 0.135088,-0.01174 0.272894,0.04168 0.393221,0.104202 0.360061,0.187082 0.522163,0.572487 0.60548,0.941999 0,0 3.552778,-1.936597 3.552778,-1.936597 z" />
    <path
       style="fill:#000000;stroke-width:0.264999"
       id="path853"
       d="m 104.53877,11.729847 c -0.47002,-0.961914 -1.40008,-1.386151 -2.45652,-1.187589 -0.31759,0.05969 -0.61663,0.193552 -0.92494,0.290328 -1.383627,0.817242 -2.818047,1.554028 -4.150887,2.451726 -0.34292,0.230963 -0.58294,0.588557 -0.84178,0.910954 -1.25738,1.566129 -1.916741,3.444178 -2.564211,5.31643 -0.703707,2.243527 -1.108421,4.588222 -0.948314,6.944758 0.02913,0.428731 0.09626,0.854032 0.144394,1.281049 0.293727,1.518364 0.4352,3.286051 1.538076,4.485653 0.141054,0.153426 0.314356,0.273719 0.471535,0.41058 0.78345,0.560745 1.67715,0.637641 2.51754,0.134956 1.28781,-0.770316 2.55522,-1.574236 3.832827,-2.361356 0.78674,-0.772374 1.40388,-1.697053 2.05671,-2.581227 0,0 -3.621507,1.568222 -3.621507,1.568222 v 0 c -0.62218,0.880185 -1.23511,1.78466 -2.07396,2.477397 0.95869,-0.526825 1.90926,-1.068686 2.876057,-1.580475 0.15868,-0.084 -0.29134,0.211958 -0.449917,0.296161 -0.61744,0.327856 -1.20878,0.308568 -1.80852,-0.04512 -0.14968,-0.108339 -0.31335,-0.199607 -0.44905,-0.32502 -1.13929,-1.052949 -1.31911,-2.772987 -1.60508,-4.199578 -0.0458,-0.41593 -0.11034,-0.830217 -0.13729,-1.247788 -0.1488,-2.305417 0.23297,-4.597469 0.93331,-6.790033 0.66953,-1.856478 1.36708,-3.719555 2.71844,-5.206522 0.28413,-0.312642 1.333627,-0.97885 0.927007,-0.864243 -0.864987,0.2438 -1.584467,0.848561 -2.376697,1.272842 1.01121,-0.40788 2.303187,-0.930178 2.806907,0.450217 0,0 3.58587,-1.902326 3.58587,-1.902326 z" />
    <path
       style="fill:#000000;stroke-width:0.264999"
       id="path855"
       d="m 108.43423,21.763334 c -2.99136,1.643973 -4.74112,1.968072 -5.21474,5.20169 0.0241,0.126373 0.02,0.261628 0.0724,0.379113 0.0467,0.104537 0.34448,0.461624 0.52863,0.366925 2.06007,-1.0594 3.51145,-1.098894 3.9934,-2.867531 0.069,-0.4885 -0.0101,-1.009782 -0.36512,-1.372018 0.0647,0.102304 0.29168,0.235405 0.19403,0.306914 -1.02894,0.753478 -2.20219,1.28742 -3.28697,1.95801 -0.16323,0.100898 0.35372,-0.151273 0.51979,-0.247399 1.3489,-0.780772 2.71042,-1.54236 4.02333,-2.382253 0.47222,-0.302093 1.74759,-1.585674 2.05377,-1.882326 2.70171,-2.719722 4.61843,-6.060087 6.30807,-9.469016 0.84616,-1.554185 1.45322,-3.2151567 2.14627,-4.8370967 -1.22019,0.659523 -2.5149,1.196726 -3.66057,1.978566 -0.15288,0.104329 -0.0286,0.369139 -0.0492,0.553073 -0.2027,1.8096587 -0.52105,3.5778807 -0.90381,5.3580957 -1.82027,9.780175 -4.20783,19.438144 -6.75366,29.050742 -1.20051,4.375176 -2.48704,8.726104 -3.81054,13.065426 0,0 3.11988,-1.492818 3.11988,-1.492818 v 0 c 0.84821,-4.205666 1.77982,-8.393727 2.76987,-12.568341 0.89905,-3.786349 1.76365,-7.498059 2.73189,-11.270639 1.57465,-6.135332 3.36703,-12.209417 5.09948,-18.301024 0.40257,-1.54575 0.74961,-3.084106 1.07514,-4.6466467 0.0641,-0.307408 0.1323,-0.613937 0.2016,-0.920203 0.0473,-0.208879 0.3554,-0.678936 0.14809,-0.62518 -1.26379,0.327708 -2.40582,1.015029 -3.60873,1.522543 -0.4206,1.5961657 -1.07389,3.1181257 -1.76722,4.6123907 -1.65002,3.413918 -3.55203,6.744134 -6.36295,9.348986 -0.42508,0.37755 -0.83664,0.770893 -1.27523,1.13265 -0.33927,0.279829 -1.45826,0.968955 -1.05634,0.790445 0.92734,-0.411866 1.76192,-1.007104 2.64986,-1.498187 0.13642,-0.07545 -0.25919,0.173834 -0.39469,0.250936 -1.2371,0.703964 -2.54694,1.289545 -3.72257,2.09196 -0.10324,0.07046 0.10835,0.225274 0.16253,0.33791 0.31044,-0.05487 0.24929,0.709827 0.17929,0.840716 -0.0517,0.0963 -0.0918,0.199822 -0.15519,0.288915 -0.0622,0.08754 -0.31456,0.285064 -0.2186,0.236778 1.10488,-0.555953 2.16039,-1.206214 3.26219,-1.768253 0.0616,-0.03144 -0.0653,0.129117 -0.12319,0.167016 -0.082,0.05369 -0.31784,-0.148609 -0.17117,-0.239033 0.079,-0.618347 0.23559,-1.17231 0.58467,-1.703694 0.88135,-1.341586 3.81399,-2.626687 -2.16507,0.730374 0,0 3.24134,-2.478516 3.24134,-2.478516 z" />
    <path
       style="fill:#000000;stroke-width:0.264999"
       id="path857"
       d="m 109.37027,17.282027 c 3.17446,-1.052189 6.38816,-1.979475 9.60654,-2.886271 1.1722,-0.341135 2.34832,-0.668303 3.52585,-0.990413 0.38276,-0.104704 0.76594,-0.22561 1.15938,-0.285618 4.61084,-3.4616157 3.74121,-2.443362 1.20755,-1.967647 -0.0833,0.0013 -0.17363,0.03722 -0.24995,0.0038 -0.55002,-0.241034 -0.19193,-2.4902517 -0.12836,-2.9240697 0.24124,-0.952811 0.12323,-0.51644 0.36554,-1.371172 0.0383,-0.135085 0.0766,-0.270177 0.11507,-0.405204 0.0134,-0.04714 0.0847,-0.163021 0.0408,-0.141293 -3.84817,1.902771 -3.43687,0.608947 -3.83736,2.454695 -0.52424,2.2304927 -1.1377,4.4355927 -1.58327,6.6837577 -0.55826,2.996362 -1.15397,5.983179 -1.85809,8.948543 -0.23521,1.1318 -0.58721,2.243685 -0.76119,3.388174 -0.0485,0.34552 0.043,0.694563 -0.13962,1.001321 -0.2149,0.08876 0.15597,0.586529 0.23815,0.546016 0.85362,-0.420841 8.35757,-4.773481 0.36238,-0.153795 0.34079,-0.170981 0.86758,-0.431035 1.16097,-0.604652 1.39571,-0.825934 2.80316,-1.633858 4.16773,-2.510279 0.35211,-0.226148 0.65623,-0.519811 0.97402,-0.792094 1.05487,-0.903827 0.95379,-0.851792 1.90134,-1.865029 1.21658,-1.432751 2.1034,-3.086751 2.75213,-4.841553 0.0376,-0.187491 0.12557,-0.428201 0.042,-0.626491 -0.5418,-1.285395 -3.29993,1.383027 -4.04108,1.88257 -0.0964,0.06496 -0.10011,0.209804 -0.15016,0.314705 -0.4331,0.985219 -0.68219,2.019121 -0.74014,3.09155 0.0194,0.734944 0.0908,1.794275 0.94843,2.065293 0.14465,0.04571 0.30131,0.03551 0.45197,0.05326 3.51684,-0.860475 4.70159,-2.699613 6.42801,-5.227004 0.37921,-0.489729 0.60219,-1.095959 1.0077,-1.5675 0.42046,-0.488929 5.72953,-3.438006 -2.18282,1.207568 0.5199,-0.275232 1.06664,-0.496923 1.61462,-0.709215 0.13386,-0.05186 0.26823,-0.10268 0.40436,-0.148267 0.0753,-0.02522 0.16201,-0.0222 0.22955,-0.06401 0.019,-0.01178 -0.0177,-0.04114 -0.0265,-0.06171 -0.0758,-0.05328 -0.135,-0.166268 -0.22745,-0.159834 -0.0858,0.006 -0.11835,0.124753 -0.17664,0.187957 -0.36514,0.395914 -0.74231,0.7796 -1.08902,1.191719 -0.44853,0.972288 0.0363,1.710145 0.75142,2.377036 1.65495,0.908939 3.182,0.498057 4.8527,-0.11365 0,0 2.98538,-2.339783 2.98538,-2.339783 v 0 c -1.4452,0.574448 -2.98149,1.111597 -4.47126,0.36523 -0.61269,-0.524587 -0.95733,-1.109511 -0.4436,-1.840493 0.20103,-0.222387 1.27732,-1.2679 1.31576,-1.479074 0.0257,-0.140994 -0.0459,-0.282918 -0.0689,-0.424377 -0.0659,-0.05219 -0.11496,-0.142353 -0.19785,-0.15656 -0.32538,-0.05577 -1.98537,0.776897 -2.37981,0.905984 -1.29196,0.739029 -2.59573,1.457776 -3.87587,2.217087 -0.1478,0.08767 -0.28111,0.200303 -0.40334,0.321107 -0.51313,0.507171 -0.68611,1.284812 -1.1469,1.830785 -0.48705,0.719935 -0.9659,1.455647 -1.55838,2.096065 -0.18796,0.203174 -0.85178,0.686721 -0.59813,0.575951 0.57872,-0.252733 4.17445,-2.312435 2.48153,-1.344343 -0.11204,0.02655 -0.22101,0.07711 -0.33612,0.07965 -0.77014,0.01696 -0.76815,-1.095209 -0.77138,-1.596708 0.1073,-1.033884 0.35397,-2.050018 0.8964,-2.949322 1.06626,-1.272015 -0.067,0.140147 -3.08777,1.641117 -0.006,0.003 -0.0322,-0.380801 0.01,-0.334982 0.0955,0.104095 -0.1324,0.371062 -0.0369,0.422227 -0.52125,1.695522 -1.38791,3.247536 -2.56823,4.5783 -0.90022,0.923952 -0.92409,1.002051 -1.93456,1.821347 -0.33837,0.274352 -1.4485,0.944557 -1.0414,0.789522 0.83637,-0.318519 1.57094,-0.857922 2.35484,-1.289725 0.21047,-0.115935 -0.41872,0.23639 -0.63451,0.342104 -0.12436,0.06093 -0.25639,0.10478 -0.38458,0.157168 -9.23719,5.269661 -0.86364,0.480523 -0.26321,0.183911 0.047,-0.02323 0.13438,0.594072 0.20365,0.227021 0.0672,-0.351023 0.02,-0.709835 0.069,-1.063702 0.11027,-1.081146 0.28758,-2.153444 0.49341,-3.220426 0.57722,-2.966513 1.12335,-5.939504 1.75217,-8.895591 0.55663,-2.286912 1.17752,-4.5611917 1.90121,-6.8011147 0.68458,-1.737398 0.41278,-0.684676 -3.39762,1.058774 -0.0175,0.008 0.0251,0.03336 0.0238,0.05254 -0.008,0.122092 -0.0301,0.243014 -0.052,0.363414 -0.0362,0.199199 -0.0815,0.396631 -0.12216,0.594973 -0.053,0.258824 -0.10587,0.517683 -0.15881,0.776525 -0.1256,0.8726137 -0.5011,2.8685147 0.28966,3.5483037 0.0914,0.07855 0.23368,0.05895 0.35052,0.08842 2.72916,-0.555476 1.97881,-0.270481 5.20169,-2.925112 -1.65489,0.633999 -3.41252,0.997573 -5.08413,1.583477 -3.05596,0.891996 -6.10818,1.797682 -9.18388,2.619288 0,0 -3.24414,2.439859 -3.24414,2.439859 z" />
    <path
       style="fill:#000000;stroke-width:0.283765"
       id="path867"
       d="m 19.091848,39.874539 c 1.275437,-1.489245 2.296826,-3.21402 3.338395,-4.915632 1.243297,-2.21795 2.492985,-3.005881 -2.774532,0.648869 -0.150112,0.104147 -0.116985,0.379522 -0.183608,0.565638 -0.111318,0.310968 -0.23336,0.61675 -0.35004,0.925122 -0.724802,1.749896 -1.559683,3.454401 -2.6516,4.942366 -0.478541,0.652113 -0.867976,1.04363 -1.39882,1.618037 -0.2003,0.166969 -0.815833,0.641937 -0.600899,0.500907 0.979224,-0.642523 1.951088,-1.301816 2.896753,-2.007346 0.0618,-0.04611 -0.179583,0.08101 -0.220999,0.01101 -0.04764,-0.08048 0.03762,-0.18972 0.0596,-0.283654 0.07224,-0.308729 0.126958,-0.624152 0.223044,-0.924215 0.152719,-0.476916 0.347866,-0.934533 0.521799,-1.401802 1.625623,-3.42584 3.724379,-6.564228 6.137429,-9.312663 0.497438,-0.566574 1.029507,-1.091722 1.544261,-1.637584 1.232831,-1.17459 1.44915,-1.441154 2.717237,-2.435084 0.354037,-0.277493 1.462273,-1.027093 1.086913,-0.789278 -5.672044,3.593577 -2.407771,1.544029 -1.721791,1.275741 0.16248,-0.06355 0.335501,-0.08366 0.503252,-0.125487 0.131997,0.02242 0.272595,0.0091 0.395991,0.06731 0.857958,0.404902 0.530583,1.974993 0.382375,2.7182 -0.493838,1.617818 -1.467169,2.958823 -2.413966,4.256975 -0.952769,1.406589 -2.251478,2.376915 -3.499445,3.398162 -0.327957,0.265127 -0.524368,0.433828 -0.852139,0.667279 -0.05498,0.03916 -0.197456,0.04052 -0.169933,0.107669 0.0891,0.217422 0.232982,0.44314 0.42962,0.526032 0.147817,0.06231 0.30265,-0.10016 0.452983,-0.153979 0.204723,-0.07329 0.408068,-0.151536 0.612102,-0.227306 1.295876,-0.532389 2.623209,-0.92761 3.984783,-1.153499 0.632904,-0.07543 1.311298,-0.268781 1.864611,0.181682 0.453694,0.600824 0.343553,1.438221 0.245682,2.160739 -0.32294,2.055954 -0.713441,4.127353 -1.404731,6.068437 -0.208281,0.584835 -0.458841,1.148678 -0.688261,1.723017 -0.308081,0.642913 -0.601863,1.295115 -0.924243,1.928742 -0.981461,1.929033 -1.543322,2.765275 -2.518788,4.763067 -0.862093,1.765596 -1.895698,4.162285 -2.605759,6.00993 -0.379048,0.98632 -0.712791,1.994724 -1.069186,2.992086 -1.195242,3.508805 -2.189234,7.097758 -2.666084,10.82883 -0.04961,1.143838 -0.05731,0.590739 0.01125,1.659458 0,0 3.470488,-2.069118 3.470488,-2.069118 v 0 c -0.07961,-0.986395 -0.05978,-0.473938 -0.0496,-1.537832 0.271884,-3.575934 1.076165,-7.0557 2.146676,-10.424162 0.34329,-0.982714 0.658105,-1.979143 1.02987,-2.94814 0.82143,-2.141038 1.674739,-4.009332 2.714399,-6.021474 1.23077,-2.382012 1.503092,-2.600787 2.715075,-4.880825 0.348274,-0.655192 0.663632,-1.332651 0.995448,-1.998978 0.245517,-0.595914 0.511364,-1.181365 0.736551,-1.787746 0.749381,-2.017921 1.208445,-4.157739 1.637532,-6.287751 0.131755,-0.920141 0.210995,-1.88441 -0.355671,-2.641483 -0.672232,-0.670928 -1.296657,-0.576012 -2.138041,-0.419099 -1.373106,0.220344 -2.718275,0.573181 -4.028537,1.101245 -0.186519,0.06332 -0.372895,0.12718 -0.559556,0.189943 -0.121302,0.04079 -0.318863,-0.01453 -0.364325,0.120713 -0.476474,1.417498 0.932941,-0.128192 0.971968,-0.120822 1.241709,-1.035125 2.49294,-2.06453 3.427306,-3.487745 0.964206,-1.35909 1.955658,-2.75794 2.376422,-4.474889 0.176645,-1.084477 0.372485,-2.658326 -0.627378,-3.350722 -0.155279,-0.107531 -0.343837,-0.132729 -0.515756,-0.199094 -0.20199,0.028 -0.409771,0.02221 -0.605971,0.08398 -0.252508,0.0795 -0.499543,0.191106 -0.728779,0.336229 -1.368956,0.866642 -2.71844,1.773733 -4.059838,2.695291 -1.282928,0.88139 -2.403455,2.052959 -3.524492,3.173138 -0.496111,0.546075 -1.00708,1.074938 -1.488332,1.638221 -2.449917,2.867521 -4.609759,6.069608 -6.342381,9.559479 -0.305213,0.735455 -1.313576,2.562385 -0.776188,3.481145 0.08375,0.143179 0.284005,0.261413 0.420126,0.188204 3.041701,-1.635873 2.865462,-1.530936 4.348984,-2.989197 0.538095,-0.638665 0.791939,-0.908037 1.281706,-1.634088 1.059054,-1.56998 1.880005,-3.327652 2.706941,-5.063812 0.146246,-0.332177 0.298791,-0.660807 0.438738,-0.996533 0.09721,-0.233203 0.490691,-0.774572 0.272495,-0.709676 -3.716342,1.105315 -3.149831,0.862967 -4.402332,3.141924 -1.032448,1.757914 -2.083154,3.548117 -3.566907,4.85433 0,0 3.750103,-1.698482 3.750103,-1.698482 z" />
    <path
       style="fill:#000000;stroke-width:0.264999"
       id="path871"
       d="m 76.163424,17.732129 c 0.06728,-0.05729 0.133864,-0.115418 0.201843,-0.171881 0.154239,-0.128108 0.661906,-0.451612 0.488482,-0.350988 -1.12703,0.653931 -2.234354,1.342397 -3.375242,1.971837 -0.104145,0.05746 0.03059,-0.448054 -0.07391,0.07424 -0.140012,1.267189 -0.503478,2.499966 -0.930445,3.697179 -0.679315,1.82305 -1.195554,1.624721 3.458716,-1.236365 0.105561,-0.06489 0.0084,-0.249359 0.03722,-0.36986 0.128564,-0.536794 0.317209,-0.894837 0.542123,-1.407722 0.703041,-1.239992 1.663375,-2.324136 2.893164,-3.053481 -1.047914,0.614957 -2.095826,1.229913 -3.143737,1.844869 0.25604,-0.102483 0.631671,-0.292188 0.86896,-0.06085 0.260766,0.954684 -0.114033,2.024755 -0.342519,2.956628 -0.633132,2.358565 -1.055449,2.024462 3.491206,-0.572795 0.123177,-0.07036 0.08644,-0.270326 0.135607,-0.403389 0.08301,-0.224629 0.173882,-0.446272 0.260821,-0.669407 0.540639,-1.027793 1.101656,-2.072132 1.826334,-2.986362 0.287139,-0.362248 0.593458,-0.640531 0.922433,-0.959881 1.151366,-0.891732 3.503443,-2.217829 -2.339128,1.282807 -0.230624,0.138181 0.388749,-0.180986 0.728916,-0.267507 0.513517,-0.115776 0.487442,-0.03754 0.566621,0.462502 -0.02109,0.301991 0.01625,0.607097 -0.01246,0.908644 -0.05932,0.623114 -0.20616,1.140039 -0.362048,1.753536 -0.425629,1.675084 -0.366527,1.401884 -0.918911,3.277543 -1.688496,5.608735 -3.595938,11.147401 -5.368059,16.729866 -1.361938,4.057168 -2.503959,8.178612 -3.500478,12.338875 0,0 3.255421,-1.565433 3.255421,-1.565433 v 0 c 0.940868,-4.109305 2.102355,-8.158557 3.275885,-12.206732 1.646105,-5.674106 3.536246,-11.271078 5.572268,-16.817125 0.738198,-2.030717 1.698887,-4.162544 1.720334,-6.358814 -0.08568,-0.530917 -0.2423,-1.122418 -0.904105,-1.040881 -2.07268,0.324591 -3.902432,1.671536 -5.445575,3.054688 -1.098537,1.201528 -1.89847,2.621883 -2.653003,4.057759 -0.117835,0.233983 -0.228532,0.471699 -0.353505,0.70195 -0.07727,0.142364 -0.405016,0.470331 -0.252764,0.415036 4.187941,-1.520983 3.439649,-0.559784 3.972494,-2.872914 0.24933,-1.072953 0.695928,-2.26628 0.311771,-3.350049 -0.06306,-0.09171 -0.108757,-0.198192 -0.189177,-0.275134 -0.229825,-0.219889 -0.792358,-0.244691 -1.058047,-0.100974 -1.307748,0.707388 -2.582238,1.474607 -3.873357,2.211911 -1.141982,0.842783 -2.030408,1.954651 -2.683738,3.2139 -0.263229,0.592224 -0.449662,0.949946 -0.624245,1.564886 -0.04659,0.164097 -0.256764,0.557916 -0.09534,0.502785 3.910468,-1.335524 3.386053,-0.566976 3.946406,-2.427277 0.376706,-1.274293 0.75841,-2.560788 0.946568,-3.877713 -0.02312,-0.145436 -0.01056,-0.30129 -0.06934,-0.436308 -0.721424,-1.656851 -3.42374,1.487384 -4.74685,2.366356 0,0 3.892407,-1.547953 3.892407,-1.547953 z" />
  </g>
</svg>
