<svg id="Layer_1" data-name="Layer 1" xmlns="http://www.w3.org/2000/svg" viewBox="0 0 363 360"><defs><style>.cls-1{fill:#fff;}</style></defs><path class="cls-1" d="M-1.5,0h363V360H-1.5ZM255.42,316.82c10.16,0,20.33.08,30.5-.09,1.55,0,3.92-.83,4.49-2,2.63-5.3-.21-9.82-6-9.69-4,.09-5.36-1.54-5.16-5.34s0-7.33,0-11c0-6.79,0-7,6.75-7,3.78,0,5-1.59,4.83-5.15-.19-3.82,0-7.66,0-11.49,0-6.83,0-7-6.77-7-3.88,0-4.94-1.65-4.8-5.14a95.93,95.93,0,0,0,0-12c-.4-4.8,1.38-6.86,6.22-6.16s5.48-1.93,5.49-6-.79-6.09-5.5-6c-11.83.29-23.67,0-35.5.17-4.2.07-6-1.08-6-5.6,0-4.26.9-6.92,5.81-6.25,4.49.62,6.66-1,6-5.8-.64-4.34,1.29-5.78,5.65-5.86,4.82-.09,6.91,1.5,6.2,6.33s1.92,5.39,5.92,5.44c4.21.05,6.23-1.1,5.89-5.65-.29-3.81.18-7.68-.12-11.49-.37-4.68,1.17-7,6.14-6.24,5.18.78,5.45-2.35,5.57-6.36.13-4.52-1.66-5.71-5.91-5.62-11.32.23-22.66.07-34,.08-6.9,0-7.1,0-7.06,6.82,0,4-1.6,5.29-5.4,5.11-4.66-.21-9.33-.17-14,0-1.27.05-3.14.79-3.64,1.77-2.63,5.15.31,10,6.07,9.81,4.24-.12,5.63,1.58,5.41,5.61-.23,4.32-.14,8.67,0,13,.09,3.34-1.23,4.91-4.71,4.81-4.83-.14-9.67-.18-14.49.06-1.43.07-3.51.86-4.07,2-2.67,5.21.29,9.79,6.2,9.76,3.3,0,5.38.55,5.32,4.6-.15,12.49-.13,25,0,37.49,0,3.52-1.48,4.75-4.8,4.67-4.5-.11-9,.21-13.5-.08-5-.32-5.16,2.53-5.26,6.29-.12,4.1,1.28,5.65,5.48,5.52,8-.26,16-.3,24,0,4.66.19,6.55-1.48,5.9-6s1.46-5.69,5.72-5.69,6.36,1.22,5.74,5.69,1.24,6,5.89,6.13c5.17.1,6.45-2.06,5.88-6.54-.64-5,2.5-5.16,6.23-5.23,3.93-.08,6,1,5.69,5.35a106.38,106.38,0,0,0,0,12.5c.22,4.06-1.31,5.67-5.48,5.61-12-.18-24,.11-36-.15-4.56-.1-5.68,1.68-5.62,5.88.06,4,.72,6.25,5.47,6.12C235.75,316.63,245.58,316.82,255.42,316.82ZM133,129.14c-8,0-16,.2-24-.08-4.51-.16-5.77,1.62-5.66,5.87.1,3.84.4,6.78,5.31,6,5.13-.77,7.06,1.53,6.45,6.5-.46,3.71,1,5.5,5,5.41,6.16-.12,6.36.09,6.53-7.33.09-4.42,2.62-4.65,5.94-4.62s6.12.05,5.92,4.57c-.17,4,0,8,0,12,0,6.57,0,6.74-6.57,6.71-3.84,0-5.52,1.32-5.31,5.27s-.24,8,.12,12c.46,5.08-1.49,7.14-6.53,6.45-3.47-.47-5.19.77-5.2,4.65,0,6.67-.22,6.94-6.88,6.87-4.9,0-4.67,2.83-4.75,6.21s.39,5.7,4.77,5.63c6.64-.11,6.91.15,6.85,6.94,0,4.81,2.71,4.77,6.16,4.82s5.71-.41,5.66-4.78c-.08-6.69.16-6.83,7.33-7,3.22-.08,4.51-1.26,4.4-4.47-.16-4.17.2-8.35-.1-12.5-.33-4.61,1-7.07,6.08-6.36,4.24.59,6.05-1.14,5.9-5.61-.19-6.08.45-6.19,6.53-6.35,5.28-.14,5.11,3.19,4.83,6.62-.4,4.74,2.15,5.44,6.13,5.45s6-.82,5.72-5.26a107.06,107.06,0,0,1,.07-14c.1-1.45,1.32-3.63,2.53-4.06,6-2.14,9.23.12,9.15,6.38-.05,3.63,1.08,5.19,4.86,5,4.49-.23,9-.21,13.5,0,3.58.17,5.49-1,5-4.81-.7-5.12,1.14-7.63,6.6-6.89,3.81.52,5.75-1.15,5.19-5.12-.71-5,1.27-6.78,6.39-6.59,4.18.16,5.51,1.56,5.49,5.62s-.79,6.6-5.5,6a19,19,0,0,0-2.5,0c-4.84.06-3.72,3.66-3.88,6.5s0,5.4,4,5.27c4.66-.15,9.35-.27,14,0,4.24.28,5.92-1.4,5.39-5.47-.62-4.8,1.37-6.67,6.21-6.34,1.69.12,4.39-.64,5-1.86,2.73-5.05-.25-9.7-6-9.61-3.95,0-5.41-1.5-5.24-5.34.19-4.16-.14-8.34.09-12.5s-1.06-6-5.61-6-6.75,1.08-6.1,5.9c.59,4.43-1.17,6-5.87,6.24-6.36.25-6.14-3.49-5.88-7.69s-2.5-4.41-5.59-4.33-6.33-.47-6.27,4.21-.2,9.34.06,14c.24,4.19-1.42,5.57-5.52,5.5-11.16-.19-22.34-.06-33.51-.06-7.35,0-7.56,0-7.82,7.47-.15,4.43-2.93,4.06-5.82,4.06s-5.89.36-5.74-4.08c.14-4.17,0-8.34,0-12.5,0-6.54,0-6.81,6.61-6.64,4.68.12,5.06-2.35,5-6s-.32-6.18-5-6C149.05,129.32,141,129.14,133,129.14Zm-99.92,76c0,7.84.18,15.68-.07,23.51C32.92,233,34,235,38.85,235c4.65,0,6.16-1.52,6-6.1-.29-8.16,0-16.34-.11-24.5-.05-3.41,1.27-4.85,4.72-4.73,4.83.16,9.69-.15,14.5.16,1.46.09,3.67,1.27,4.1,2.47,2.07,5.82-.13,8.95-6.19,8.79-4.24-.1-5.63,1.59-5.4,5.64a119.76,119.76,0,0,1,0,13c-.21,4,1.53,5.27,5.34,5.19,8-.18,16-.3,24,0,4.8.2,6-1.7,5.88-6.16-.25-11.33-.08-22.67-.08-34,0-6.77,0-6.81,6.59-6.83,3.67,0,7.35-.23,11,.06,4.56.37,6.19-1.34,6.17-6s-1.44-6.62-6.08-6c-4.19.56-5.8-1-6-5.49-.2-5.56,2.35-6.64,6.93-6.12s5.1-2.28,5-5.92c0-3.32-.2-5.83-4.68-5.81-6.78,0-7-.21-7.06-7.21-.06-3.6-1.66-4.52-4.93-4.55-6.8-.06-6.88-.18-7-6.9,0-2.85-.47-4.91-4-4.9q-25.26.07-50.52,0c-2.69,0-4,1.19-4,3.9,0,5.34-.12,10.68.1,16a4.66,4.66,0,0,0,2.07,3.48c5.35,2.41,9.5-.22,9.39-6-.08-4.06,1.32-5.82,5.52-5.56a108.6,108.6,0,0,0,12.5,0c4-.22,6.14,1.22,5.58,5.42-.65,5,1.28,7.22,6.4,6.48,3.92-.56,5.67,1.24,5.15,5.13-.68,5,1.42,7.16,6.47,6.47,4.78-.65,5.34,2.15,5.37,6.08s-1.1,6.12-5.38,5.51c-5.11-.74-7.1,1.52-6.46,6.5.54,4.17-1.41,5.59-5.5,5.46-7.5-.23-15-.06-22.51-.06-6.84,0-7.1,0-7-6.94.07-4.63-2.32-5-6-5-3.82-.05-6,.75-5.83,5.2C33.3,189.14,33.13,197.14,33.12,205.14ZM74.5,117.68c11.67,0,23.33-.14,35,.07,4.32.08,5.86-1.38,5.83-5.77q-.24-35.48,0-71c0-4.13-1.39-5.54-5.51-5.52q-35.73.2-71.47,0c-3.87,0-5.29,1.27-5.27,5.2q.19,35.73,0,71.47c0,4.06,1.26,5.64,5.46,5.57C50.51,117.55,62.51,117.67,74.5,117.68ZM243.87,77c0,11.83.1,23.66-.05,35.48,0,3.89,1.39,5.3,5.27,5.28q35.75-.17,71.48,0c4.16,0,5.51-1.45,5.49-5.53q-.21-35.73,0-71.47c0-3.9-1.34-5.25-5.24-5.23q-35.73.18-71.47,0c-4.09,0-5.61,1.33-5.54,5.49C244,53,243.87,65,243.87,77ZM115.24,287c0-11.83-.1-23.66.06-35.48,0-3.89-1.39-5.3-5.28-5.28q-35.73.17-71.47,0c-4.16,0-5.51,1.44-5.49,5.53q.19,35.73,0,71.46c0,3.9,1.33,5.26,5.24,5.24q35.73-.18,71.47,0c4.09,0,5.61-1.32,5.54-5.49C115.12,311,115.24,299,115.24,287ZM191.1,59c4.49,0,9-.09,13.49,0,3,.08,4.26-1.13,4.21-4.12-.1-5.16.09-10.33-.13-15.48a4.68,4.68,0,0,0-1.95-3.51c-5.33-2.42-9.67.22-9.53,5.87.11,4.15-1.41,5.6-5.54,5.45-7.15-.26-14.32-.07-21.49-.07-7.75,0-8,0-8.23,7.65-.17,4.75-3.24,4.06-6.23,4.2-3.3.16-5.53-.49-5.35-4.55.2-4.49-.2-9,.11-13.48.33-4.76-2.11-5.45-6.08-5.49-4.12,0-6.52,1-5.83,5.59.73,4.92-1.52,6.52-6.26,6.2-1.7-.12-4.35.63-5.1,1.87-2.92,4.83.2,9.93,5.91,9.77,4.16-.12,5.44,1.46,5.57,5.54.14,4.78-1.37,7-6.26,6.33-4.33-.59-5.81,1.24-5.84,5.63,0,4.55,1.38,6.44,6,6.1a90.36,90.36,0,0,1,12,0c4.24.25,6.41-1.21,5.8-5.68s1-6,5.78-6.17c6.09-.23,5.94,3.21,5.7,7.28-.3,5,3.19,4.45,6.4,4.54s5.59-.36,5.4-4.51c-.22-4.82,0-9.66-.06-14.48-.06-3.16,1.32-4.58,4.49-4.51C182.43,59.05,186.76,59,191.1,59ZM173.6,298.64c0,4.16.22,8.33,0,12.48-.29,4.38,1.47,5.81,5.79,5.82s6.82-1.05,6.17-5.88c-.59-4.4,1-6.76,5.76-6.07,4.58.67,6.12-1.3,6.11-5.9s-1.53-6.56-6.12-5.95c-4.21.56-5.88-1-5.9-5.52s1.33-6.6,6-6a14.69,14.69,0,0,0,2,0c4.77-.08,3.78-3.63,3.92-6.5s-.18-5.36-4.11-5.25c-4.82.13-9.66-.14-14.48.07-4.53.2-5.1-2.34-5.11-6s.65-6.34,5.15-5.93c1,.09,2,0,3,0,3.62.13,4-2.24,3.8-5s1.11-6.55-3.66-6.7c-5.32-.17-10.65,0-16-.06-3.05,0-4.06,1.65-4,4.44.06,3.82,0,7.65,0,11.48,0,7.36,0,7.61-7.18,7.62-4.73,0-4.32,2.88-4.37,6s-.05,6.09,4.51,5.9,9.32.11,14-.07c3.74-.15,5.05,1.42,4.86,5C173.44,290.65,173.6,294.65,173.6,298.64Zm152.39-70c0-8-.14-16,.06-24,.1-4-1.48-5.27-5.31-5.18-8,.18-16,.24-24,0-4.49-.15-6.15,1.25-6.17,6s1.81,6.33,6.22,5.78,6.39,1.26,5.77,5.67c-.69,4.89,1.44,6.76,6.21,6.12,4.05-.54,5.83,1.19,5.61,5.38-.22,4.48-.13,9,0,13.48.08,3.2-1.3,4.53-4.49,4.45-4.66-.12-9.33.16-14-.08-4.43-.22-5.3,2-5.22,5.85.07,3.53.19,6.18,4.95,6,8.48-.27,17-.21,25.48,0,3.73.09,5-1.32,5-5C325.88,245,326,236.82,326,228.66ZM220.7,70.77c-2.16,0-4.34.16-6.49,0-4.06-.37-5.8,1.16-5.55,5.39.27,4.48,0,9,.09,13.48.09,3.18-1.14,4.56-4.39,4.46-4.66-.14-9.34.19-14-.1s-5,2.44-4.94,6,.08,6.18,4.88,6.07c6.46-.16,6.34.13,6.9,7,.12,1.55,1,3.83,2.19,4.35,5.49,2.43,9.38-.13,9.31-6,0-3.7,1-5.5,5.1-5.44,6.44.1,6.54-.11,6.71-7,.07-3,.87-4.63,4.2-4.83,7.68-.47,7.68-.58,7.68-8.12,0-1.16,0-2.33,0-3.49C232.26,69,234.1,70.92,220.7,70.77ZM126.71,299c0,8.17.17,16.34-.07,24.49-.14,4.76,2.6,4.88,6.1,4.93,3.66.05,6.45-.47,5.8-5.08-.68-4.87,1.05-7.31,6.29-6.57,4.51.65,5.69-1.69,5.67-5.87s-.86-6.57-5.54-5.94-6.62-.93-6.56-6c0-4.82,2-6.31,6.33-5.77s5.86-1.32,5.78-5.69c-.07-4-.89-6.6-5.54-6-5.05.67-7.17-1.46-6.42-6.49.68-4.51-1.82-5.25-5.63-5.21s-6.49.22-6.3,5.22C126.93,283,126.71,291,126.71,299ZM162,228.81c0-4.49,0-9,0-13.45,0-2.9-1.21-4.28-4.18-4.23-5,.07-10,.09-14.95,0-3.24-.06-4.42,1.45-4.34,4.57.11,4.81.14,9.63,0,14.45-.11,3.43,1.32,4.68,4.72,4.74,6.73.11,6.94.25,7,7.17.05,4.19,2.4,4.48,5.52,4.37,2.95-.11,6.32.59,6.22-4.16C161.91,237.78,162,233.29,162,228.81Zm11.63-105.28c0,4.49-.31,9,.18,13.45.16,1.45,2.32,3.69,3.72,3.81a116.14,116.14,0,0,0,15.94.06,4.8,4.8,0,0,0,3.55-2.52c2-6.1-.14-9.24-6.43-9.12-4,.08-5.31-1.42-5.12-5.28.24-4.64,0-9.31.08-14,.1-4.87-3.39-3.94-6.27-4s-5.83-.22-5.68,4.14S173.61,119,173.61,123.53Zm105.63,29.15v-7c0-.17,0-.34,0-.5.1-2.86-1.12-4.15-4.13-4.29-7-.33-7.16-.44-7.53-7.66-.24-4.67-3.38-4-6.35-4.14s-5.73.16-5.63,4.32c.11,4.65.21,9.31,0,13.95-.22,4.15,1.47,6,5.53,5.41,5.07-.68,7.11,1.46,6.41,6.46-.55,3.92,1.25,5.29,5.12,5.22,6.17-.11,6.58-.32,6.62-6.32C279.26,156.33,279.25,154.51,279.24,152.68Zm28.95,175.7c4.49,0,9-.12,13.48,0,4.68.16,4.32-3,4.34-6.06s.11-5.59-4.22-5.68c-6.9-.15-7.1-.36-7.31-7.42-.13-4.67-3.09-4.3-6.16-4.28-2.89,0-5.67-.38-5.81,4-.22,7.2-.42,7.37-7.66,7.66-3.87.15-4.28,2.31-4.12,5.28s-.83,6.42,4,6.41ZM208.77,205.53c0-4.48.12-9-.07-13.44-.06-1.31-.63-3.19-1.59-3.75-4.73-2.78-10.07.28-9.92,5.74.11,4.08-1.34,5.93-5.48,5.47a23,23,0,0,0-2.49,0c-4.53,0-3.68,3.32-3.7,6s-.63,5.37,3.57,5.66c7.39.52,7.56.68,8,7.83.29,4.83,3.62,3.76,6.45,3.91s5.4,0,5.28-4C208.67,214.5,208.77,210,208.77,205.53ZM150.35,99.74c0,4.64.07,9.28,0,13.92-.09,4.39,3,4,5.81,4s5.88.3,5.86-4q-.08-13.68,0-27.35c0-4.34-3-4-5.86-4s-5.9-.4-5.81,4S150.35,95.26,150.35,99.74Zm164,181.78c-2,0-4,.14-6,0-4.13-.36-6,1-5.94,5.55.09,4.18.7,6.9,5.7,6.16,4.83-.71,6.79,1.47,6.21,6.23-.47,3.85.72,5.85,5.18,5.66,6.23-.28,6.41-.17,6.45-6.43,0-1.83,0-3.65,0-5.48C325.84,280,327.69,281.66,314.36,281.52ZM208.85,328.39a63.24,63.24,0,0,1,6.46,0c4.77.48,5.35-2.15,5.36-6.08s-.87-6.2-5.24-5.59c-5.33.75-7.37-1.62-6.66-6.79.55-4-1.46-5.15-5.24-5.05-6.2.17-6.37.16-6.41,6.45,0,1.82,0,3.65,0,5.47C197.27,330.08,195.5,328.24,208.85,328.39ZM138.55,106c0-2.49-.13-5,0-7.48.25-4-2.06-4.69-5.35-4.55s-6.65-.58-6.54,4.42.09,10,0,15c-.06,3.29,1.64,4.24,4.66,4.34,6.61.19,7.19-.24,7.2-6.7C138.56,109.35,138.55,107.69,138.55,106Zm35.06,117c0,2.33.13,4.66,0,7-.3,4.27,2.15,5,5.65,4.86,3.33-.09,6.51.17,6.32-4.7-.19-4.65-.21-9.33,0-14,.19-4.06-1.71-5.18-5.43-5.12-6.13.1-6.5.31-6.52,6.46Q173.59,220.29,173.61,223ZM56.53,164.12c0,2.67.09,5.34,0,8-.17,4.09,2.58,4,5.37,3.9s6.48,1.08,6.49-3.83c0-4.67-.2-9.34.07-14,.24-4.15-1.34-5.63-5.49-5.5-6.24.19-6.41.14-6.43,6.43C56.52,160.79,56.52,162.46,56.53,164.12Zm258,11.91c-2.65,0-5.31.05-8,0-4.8-.1-3.94,3.38-4,6.28s-.09,5.77,4.19,5.66c4.8-.14,9.62-.19,14.41,0,3.81.17,4.86-1.59,4.86-5.08,0-6.44-.24-6.85-6.49-6.87Zm-176,70.36c0-2.5-.12-5,0-7.5.25-4.42-2.74-4.18-5.67-4.14s-6.32-.61-6.21,4.18c.11,5-.17,10,.15,15,.09,1.4,1.44,3.57,2.64,3.92,6.72,2,9.07,0,9.07-6.95Zm93.86-128.93h0c0-2.67,0-5.33,0-8-.08-4.14-3.17-3.61-5.78-3.5-2.43.1-5.88-1.12-6,3.18-.14,5.66-.16,11.34.09,17a4.23,4.23,0,0,0,2.61,2.91c6.85,1.79,9.08,0,9.09-7.08ZM208.77,246.37c0-2.49-.12-5,0-7.47.25-4.37-2.66-4.18-5.62-4.16s-6.23-.45-6.08,4.25c.14,4.48.24,9,0,13.44s1.35,5.75,5.72,5.75,6.65-1.05,6-5.85A49.33,49.33,0,0,1,208.77,246.37Zm99.32-105.49c4.31.71,6.57-.51,6.44-5.46-.1-4.17-.78-6.53-5.74-6.41-4.21.1-6.54.8-6.32,5.76C302.65,138.8,302.86,142,308.09,140.88Zm-11.17,164c4.79,1.18,5.7-1.41,5.79-5.78.1-4.6-1.47-6.08-6-6.07s-6.08,1.57-6.06,6.11S292,305.78,296.92,304.86ZM109,234.73c4.42.74,6.41-.81,6.35-5.59,0-4.26-.91-6.41-5.79-6.3-4.25.1-6.48.81-6.21,5.76C103.57,232.64,103.82,235.73,109,234.73Zm76.4-41c1-4.79-1.39-5.91-5.82-5.94s-6.19,1.17-6.13,5.91c0,4.56,1.5,6.14,6.07,6.08C183.93,199.73,186.33,198.58,185.41,193.73Zm0-105.29c.87-4.59-1-6.27-5.67-6.25-4.3,0-6.32,1-6.28,5.85,0,4.45,1.16,6.31,5.91,6.12C183.49,94,186.47,93.59,185.41,88.44Zm-41.15,181.4c4.59.82,6.28-1,6.26-5.72,0-4.4-1.2-6.26-6-6.23-4.46,0-6.28,1.21-6.15,5.95C138.54,268.09,139.27,270.82,144.26,269.84Zm76.22-87.49c.69-4.23-.41-6.59-5.42-6.44-4.13.13-6.62.67-6.46,5.69.13,4.14.69,6.64,5.71,6.44C218.36,187.88,221.48,187.58,220.48,182.35ZM156.17,188c-4.83-1-6,1.3-6,5.78,0,4.17,1.06,6,5.63,6,4.36,0,6.39-1.06,6.28-5.89C162,189.58,161.16,187,156.17,188Zm35-117.13c-4.84-1.27-5.73,1.34-5.77,5.73s1.14,6,5.65,5.92c4.27-.06,6.45-.92,6.35-5.83C197.29,72.28,196.19,69.93,191.15,70.91Zm111.33,87.8c.91-4.59-1-6.13-5.63-6.07-4.25.05-6.35.86-6.26,5.75.08,4.44,1.26,6.28,5.94,6.13C300.69,164.4,303.55,163.79,302.48,158.71Zm17.69-17.62c-4.81-1-5.92,1.34-5.95,5.75s1.2,6.15,5.91,6.13,6-1.6,6-6.09S325,140.06,320.17,141.09Zm-35.09-11.83c-4.41-1-6.11.91-6.07,5.57,0,4.19.79,6.41,5.72,6.29,4.28-.1,6.42-.9,6.18-5.77C290.71,131.33,290.44,128.24,285.08,129.26Zm-52.8-87.82c1-4.5-1.06-6-5.62-6-4.21,0-6.36.82-6.25,5.74.1,4.34,1,6.33,5.83,6.12C230.31,47.15,233.31,46.76,232.28,41.44Z" transform="translate(1.5)"/><path d="M255.42,316.82c-9.84,0-19.67-.19-29.5.08-4.75.13-5.41-2.14-5.47-6.12-.06-4.2,1.06-6,5.62-5.88,12,.26,24,0,36,.15,4.17.06,5.7-1.55,5.48-5.61a106.38,106.38,0,0,1,0-12.5c.28-4.35-1.76-5.43-5.69-5.35-3.73.07-6.87.25-6.23,5.23.57,4.48-.71,6.64-5.88,6.54-4.65-.1-6.52-1.58-5.89-6.13s-1.47-5.69-5.74-5.69-6.36,1.21-5.72,5.69-1.24,6.24-5.9,6c-8-.31-16-.27-24,0-4.2.13-5.6-1.42-5.48-5.52.1-3.76.3-6.61,5.26-6.29,4.48.29,9,0,13.5.08,3.32.08,4.84-1.15,4.8-4.67-.12-12.5-.14-25,0-37.49.06-4-2-4.62-5.32-4.6-5.91,0-8.87-4.55-6.2-9.76.56-1.09,2.64-1.88,4.07-2,4.82-.24,9.66-.2,14.49-.06,3.48.1,4.8-1.47,4.71-4.81-.11-4.33-.2-8.68,0-13,.22-4-1.17-5.73-5.41-5.61-5.76.17-8.7-4.66-6.07-9.81.5-1,2.37-1.72,3.64-1.77,4.66-.22,9.33-.26,14,0,3.8.18,5.42-1.1,5.4-5.11,0-6.81.16-6.82,7.06-6.82,11.33,0,22.67.15,34-.08,4.25-.09,6,1.1,5.91,5.62-.12,4-.39,7.14-5.57,6.36-5-.76-6.51,1.56-6.14,6.24.3,3.81-.17,7.68.12,11.49.34,4.55-1.68,5.7-5.89,5.65-4-.05-6.62-.69-5.92-5.44s-1.38-6.42-6.2-6.33c-4.36.08-6.29,1.52-5.65,5.86.7,4.75-1.47,6.42-6,5.8-4.91-.67-5.77,2-5.81,6.25,0,4.52,1.81,5.67,6,5.6,11.83-.21,23.67.12,35.5-.17,4.71-.11,5.52,1.92,5.5,6s-.79,6.63-5.49,6-6.62,1.36-6.22,6.16a95.93,95.93,0,0,1,0,12c-.14,3.49.92,5.17,4.8,5.14,6.75-.05,6.76.15,6.77,7,0,3.83-.15,7.67,0,11.49.17,3.56-1.05,5.13-4.83,5.15-6.74,0-6.74.21-6.75,7,0,3.66.16,7.34,0,11s1.14,5.43,5.16,5.34c5.83-.13,8.67,4.39,6,9.69-.57,1.15-2.94,1.95-4.49,2C275.75,316.9,265.58,316.82,255.42,316.82Zm-5.43-82c-4.49,0-9,0-13.48,0-2.59,0-4.12.8-4.1,3.68.05,9.15-.15,18.31.19,27.45.05,1.36,2.38,3.73,3.73,3.78,9,.34,18,.17,26.95.19,2.92,0,4.23-1.4,4.22-4.29,0-8.81-.06-17.63,0-26.45,0-3.26-1.44-4.45-4.56-4.37C258.65,234.92,254.32,234.83,250,234.83Z" transform="translate(1.5)"/><path d="M133,129.14c8,0,16,.18,24-.07,4.69-.14,5,2.48,5,6s-.36,6.08-5,6c-6.59-.17-6.6.1-6.61,6.64,0,4.16.11,8.33,0,12.5-.15,4.44,2.85,4.08,5.74,4.08s5.67.37,5.82-4.06c.26-7.47.47-7.47,7.82-7.47,11.17,0,22.35-.13,33.51.06,4.1.07,5.76-1.31,5.52-5.5-.26-4.65,0-9.33-.06-14s3.25-4.13,6.27-4.21,5.84.11,5.59,4.33-.48,7.94,5.88,7.69c4.7-.19,6.46-1.81,5.87-6.24-.65-4.82,1.7-5.88,6.1-5.9s5.85,1.82,5.61,6,.1,8.34-.09,12.5c-.17,3.84,1.29,5.39,5.24,5.34,5.79-.09,8.77,4.56,6,9.61-.65,1.22-3.35,2-5,1.86-4.84-.33-6.83,1.54-6.21,6.34.53,4.07-1.15,5.75-5.39,5.47-4.65-.31-9.34-.19-14,0-4,.13-4.19-2.37-4-5.27s-1-6.44,3.88-6.5a19,19,0,0,1,2.5,0c4.71.6,5.48-2,5.5-6s-1.31-5.46-5.49-5.62c-5.12-.19-7.1,1.58-6.39,6.59.56,4-1.38,5.64-5.19,5.12-5.46-.74-7.3,1.77-6.6,6.89.51,3.8-1.4,5-5,4.81-4.49-.21-9-.23-13.5,0-3.78.2-4.91-1.36-4.86-5,.08-6.26-3.14-8.52-9.15-6.38-1.21.43-2.43,2.61-2.53,4.06a107.06,107.06,0,0,0-.07,14c.28,4.44-1.86,5.26-5.72,5.26s-6.53-.71-6.13-5.45c.28-3.43.45-6.76-4.83-6.62-6.08.16-6.72.27-6.53,6.35.15,4.47-1.66,6.2-5.9,5.61-5.06-.71-6.41,1.75-6.08,6.36.3,4.15-.06,8.33.1,12.5.11,3.21-1.18,4.39-4.4,4.47-7.17.19-7.41.33-7.33,7,0,4.37-2.19,4.82-5.66,4.78s-6.2,0-6.16-4.82c.06-6.79-.21-7-6.85-6.94-4.38.07-4.84-2.16-4.77-5.63s-.15-6.26,4.75-6.21c6.66.07,6.86-.2,6.88-6.87,0-3.88,1.73-5.12,5.2-4.65,5,.69,7-1.37,6.53-6.45-.36-4,.09-8-.12-12s1.47-5.28,5.31-5.27c6.56,0,6.56-.14,6.57-6.71,0-4-.14-8,0-12,.2-4.52-2.66-4.55-5.92-4.57s-5.85.2-5.94,4.62c-.17,7.42-.37,7.21-6.53,7.33-4.07.09-5.5-1.7-5-5.41.61-5-1.32-7.27-6.45-6.5-4.91.73-5.21-2.21-5.31-6-.11-4.25,1.15-6,5.66-5.87C117,129.34,125,129.14,133,129.14Z" transform="translate(1.5)"/><path d="M33.12,205.14c0-8,.18-16-.06-24-.13-4.45,2-5.25,5.83-5.2,3.65.05,6,.41,6,5-.12,6.92.14,6.93,7,6.94,7.5,0,15-.17,22.51.06,4.09.13,6-1.29,5.5-5.46-.64-5,1.35-7.24,6.46-6.5,4.28.61,5.42-1.5,5.38-5.51s-.59-6.73-5.37-6.08c-5,.69-7.15-1.43-6.47-6.47.52-3.89-1.23-5.69-5.15-5.13-5.12.74-7-1.49-6.4-6.48.56-4.2-1.54-5.64-5.58-5.42a108.6,108.6,0,0,1-12.5,0c-4.2-.26-5.6,1.5-5.52,5.56.11,5.8-4,8.43-9.39,6A4.66,4.66,0,0,1,33.24,149c-.22-5.32-.08-10.66-.1-16,0-2.71,1.3-3.9,4-3.9q25.26,0,50.52,0c3.53,0,4,2,4,4.9.1,6.72.18,6.84,7,6.9,3.27,0,4.87,1,4.93,4.55.11,7,.28,7.23,7.06,7.21,4.48,0,4.63,2.49,4.68,5.81.06,3.64-.43,6.44-5,5.92s-7.13.56-6.93,6.12c.16,4.53,1.77,6.05,6,5.49,4.64-.62,6.07,1.47,6.08,6s-1.61,6.34-6.17,6c-3.65-.29-7.33-.07-11-.06-6.54,0-6.58.06-6.59,6.83,0,11.33-.17,22.67.08,34,.1,4.46-1.08,6.36-5.88,6.16-8-.34-16-.22-24,0-3.81.08-5.55-1.19-5.34-5.19a119.76,119.76,0,0,0,0-13c-.23-4,1.16-5.74,5.4-5.64,6.06.16,8.26-3,6.19-8.79-.43-1.2-2.64-2.38-4.1-2.47-4.81-.31-9.67,0-14.5-.16-3.45-.12-4.77,1.32-4.72,4.73.11,8.16-.18,16.34.11,24.5.16,4.58-1.35,6.08-6,6.1-4.89,0-5.93-2-5.8-6.32C33.3,220.82,33.12,213,33.12,205.14Z" transform="translate(1.5)"/><path d="M74.5,117.68c-12,0-24-.13-36,.07-4.2.07-5.48-1.51-5.46-5.57q.19-35.73,0-71.47c0-3.93,1.4-5.22,5.27-5.2q35.73.18,71.47,0c4.12,0,5.54,1.39,5.51,5.52q-.21,35.48,0,71c0,4.39-1.51,5.85-5.83,5.77C97.83,117.54,86.17,117.68,74.5,117.68ZM44.77,76c0,8.5.07,17,0,25.49,0,3,.7,4.55,4.17,4.52,16.83-.13,33.66-.1,50.48,0,3,0,4.16-1,4.14-4q-.13-25.25,0-50.47c0-3.38-1.32-4.29-4.43-4.27-16.66.09-33.33.13-50,0-3.72,0-4.47,1.58-4.41,4.83C44.87,60,44.77,68,44.77,76Z" transform="translate(1.5)"/><path d="M243.87,77c0-12,.13-24-.07-36-.07-4.16,1.45-5.51,5.54-5.49q35.73.2,71.47,0c3.9,0,5.26,1.33,5.24,5.23q-.18,35.73,0,71.47c0,4.08-1.33,5.56-5.49,5.53q-35.74-.21-71.48,0c-3.88,0-5.32-1.39-5.27-5.28C244,100.63,243.87,88.8,243.87,77Zm70.47-.38c0-8.33-.09-16.66.05-25,.06-3.17-.94-4.47-4.27-4.45q-25,.18-50,0c-3.49,0-4.6,1.18-4.57,4.64q.21,24.74,0,49.48c0,3.37.92,4.73,4.52,4.7q25-.23,50,0c3.33,0,4.35-1.23,4.31-4.39C314.26,93.25,314.34,84.92,314.34,76.59Z" transform="translate(1.5)"/><path d="M115.24,287c0,12-.12,24,.07,36,.07,4.17-1.45,5.51-5.54,5.49q-35.73-.19-71.47,0c-3.91,0-5.26-1.34-5.24-5.24q.18-35.73,0-71.46c0-4.09,1.33-5.56,5.49-5.53q35.73.21,71.47,0c3.89,0,5.33,1.39,5.28,5.28C115.14,263.33,115.24,275.16,115.24,287ZM74.36,258.05c-8.5,0-17,.09-25.49-.05-3-.05-4.15,1-4.13,4q.1,25.48,0,51c0,2.84,1.2,3.78,3.92,3.77q25.49-.11,51,0c2.67,0,3.89-.9,3.88-3.78q-.13-25.49,0-51c0-3.1-1.23-4-4.17-4C91,258.12,82.69,258.05,74.36,258.05Z" transform="translate(1.5)"/><path d="M191.1,59c-4.34,0-8.67.08-13,0-3.17-.07-4.55,1.35-4.49,4.51.08,4.82-.16,9.66.06,14.48.19,4.15-2.19,4.6-5.4,4.51s-6.7.44-6.4-4.54c.24-4.07.39-7.51-5.7-7.28-4.74.17-6.38,1.71-5.78,6.17s-1.56,5.93-5.8,5.68a90.36,90.36,0,0,0-12,0c-4.66.34-6.06-1.55-6-6.1,0-4.39,1.51-6.22,5.84-5.63,4.89.65,6.4-1.55,6.26-6.33-.13-4.08-1.41-5.66-5.57-5.54-5.71.16-8.83-4.94-5.91-9.77.75-1.24,3.4-2,5.1-1.87,4.74.32,7-1.28,6.26-6.2-.69-4.62,1.71-5.63,5.83-5.59,4,0,6.41.73,6.08,5.49-.31,4.47.09,9-.11,13.48-.18,4.06,2.05,4.71,5.35,4.55,3-.14,6.06.55,6.23-4.2.27-7.66.48-7.65,8.23-7.65,7.17,0,14.34-.19,21.49.07,4.13.15,5.65-1.3,5.54-5.45-.14-5.65,4.2-8.29,9.53-5.87a4.68,4.68,0,0,1,1.95,3.51c.22,5.15,0,10.32.13,15.48,0,3-1.23,4.2-4.21,4.12C200.09,58.88,195.59,59,191.1,59Z" transform="translate(1.5)"/><path d="M173.6,298.64c0-4-.16-8,.05-12,.19-3.62-1.12-5.19-4.86-5-4.65.18-9.32-.12-14,.07s-4.56-2.67-4.51-5.9-.36-6,4.37-6c7.18,0,7.18-.26,7.18-7.62,0-3.83.06-7.66,0-11.48-.05-2.79,1-4.46,4-4.44,5.32,0,10.65-.11,16,.06,4.77.15,3.47,3.92,3.66,6.7s-.18,5.12-3.8,5c-1,0-2,.08-3,0-4.5-.41-5.16,2.22-5.15,5.93s.58,6.2,5.11,6c4.82-.21,9.66.06,14.48-.07,3.93-.11,4.24,2.33,4.11,5.25s.85,6.42-3.92,6.5a14.69,14.69,0,0,1-2,0c-4.65-.63-6,1.42-6,6s1.69,6.08,5.9,5.52c4.59-.61,6.11,1.37,6.12,5.95s-1.53,6.57-6.11,5.9c-4.8-.69-6.35,1.67-5.76,6.07.65,4.83-1.84,5.88-6.17,5.88s-6.08-1.44-5.79-5.82C173.82,307,173.6,302.8,173.6,298.64Z" transform="translate(1.5)"/><path d="M326,228.66c0,8.16-.11,16.32.05,24.48.07,3.64-1.22,5.05-5,5-8.49-.19-17-.25-25.48,0-4.76.14-4.88-2.51-4.95-6-.08-3.81.79-6.07,5.22-5.85,4.66.24,9.33,0,14,.08,3.19.08,4.57-1.25,4.49-4.45-.1-4.49-.19-9,0-13.48.22-4.19-1.56-5.92-5.61-5.38-4.77.64-6.9-1.23-6.21-6.12.62-4.41-1.5-6.2-5.77-5.67s-6.24-1-6.22-5.78,1.68-6.11,6.17-6c8,.26,16,.2,24,0,3.83-.09,5.41,1.21,5.31,5.18C325.85,212.66,326,220.66,326,228.66Z" transform="translate(1.5)"/><path d="M220.7,70.76c13.4.16,11.56-1.72,11.71,11.63,0,1.16,0,2.33,0,3.49,0,7.54,0,7.65-7.68,8.12-3.33.2-4.13,1.87-4.2,4.83-.17,6.91-.27,7.12-6.71,7-4.09-.06-5.14,1.74-5.1,5.44.07,5.9-3.82,8.46-9.31,6-1.17-.52-2.07-2.8-2.19-4.35-.56-6.82-.44-7.11-6.9-7-4.8.11-4.86-2.58-4.88-6.07s.19-6.28,4.94-6,9.32,0,14,.1c3.25.1,4.48-1.28,4.39-4.46-.14-4.49.18-9-.09-13.48-.25-4.23,1.49-5.76,5.55-5.39C216.36,70.93,218.54,70.77,220.7,70.76Z" transform="translate(1.5)"/><path d="M126.71,299c0-8,.22-16-.09-24-.19-5,2.56-5.17,6.3-5.22s6.31.7,5.63,5.21c-.75,5,1.37,7.16,6.42,6.49,4.65-.62,5.47,1.94,5.54,6,.08,4.37-1.4,6.24-5.78,5.69s-6.28.95-6.33,5.77c-.06,5.09,2,6.64,6.56,6s5.52,1.89,5.54,5.94-1.16,6.52-5.67,5.87c-5.24-.74-7,1.7-6.29,6.57.65,4.61-2.14,5.13-5.8,5.08-3.5-.05-6.24-.17-6.1-4.93C126.88,315.37,126.71,307.2,126.71,299Z" transform="translate(1.5)"/><path d="M162,228.81c0,4.48-.07,9,0,13.45.1,4.75-3.27,4.05-6.22,4.16-3.12.11-5.47-.18-5.52-4.37-.09-6.92-.3-7.06-7-7.17-3.4-.06-4.83-1.31-4.72-4.74.15-4.82.12-9.64,0-14.45-.08-3.12,1.1-4.63,4.34-4.57,5,.1,10,.08,14.95,0,3,0,4.22,1.33,4.18,4.23C161.93,219.84,162,224.32,162,228.81Z" transform="translate(1.5)"/><path d="M173.61,123.53c0-4.49.12-9,0-13.47s2.72-4.24,5.68-4.14,6.37-.83,6.27,4c-.1,4.66.16,9.33-.08,14-.19,3.86,1.14,5.36,5.12,5.28,6.29-.12,8.47,3,6.43,9.12a4.8,4.8,0,0,1-3.55,2.52,116.14,116.14,0,0,1-15.94-.06c-1.4-.12-3.56-2.36-3.72-3.81C173.3,132.55,173.61,128,173.61,123.53Z" transform="translate(1.5)"/><path d="M279.25,152.68c0,1.83,0,3.65,0,5.48,0,6-.45,6.21-6.62,6.32-3.87.07-5.67-1.3-5.12-5.22.7-5-1.34-7.14-6.41-6.46-4.06.55-5.75-1.26-5.53-5.41.24-4.64.14-9.3,0-13.95-.1-4.16,2.54-4.41,5.63-4.32s6.11-.53,6.35,4.14c.37,7.22.53,7.33,7.53,7.66,3,.14,4.23,1.43,4.13,4.29,0,.16,0,.33,0,.5C279.24,148,279.24,150.36,279.25,152.68Z" transform="translate(1.5)"/><path d="M308.19,328.38H294.7c-4.8,0-3.82-3.53-4-6.41s.25-5.13,4.12-5.28c7.24-.29,7.44-.46,7.66-7.66.14-4.43,2.92-4,5.81-4,3.07,0,6-.39,6.16,4.28.21,7.06.41,7.27,7.31,7.42,4.33.09,4.24,2.69,4.22,5.68s.34,6.22-4.34,6.06C317.18,328.26,312.68,328.38,308.19,328.38Z" transform="translate(1.5)"/><path d="M208.77,205.53c0,4.49-.1,9,0,13.45.12,4-2.39,4.16-5.28,4s-6.16.92-6.45-3.91c-.42-7.15-.59-7.31-8-7.83-4.2-.29-3.6-3.07-3.57-5.66s-.83-6.06,3.7-6a23,23,0,0,1,2.49,0c4.14.46,5.59-1.39,5.48-5.47-.15-5.46,5.19-8.52,9.92-5.74,1,.56,1.53,2.44,1.59,3.75C208.89,196.56,208.77,201.05,208.77,205.53Z" transform="translate(1.5)"/><path d="M150.35,99.74c0-4.48.07-9,0-13.43s3-4,5.81-4,5.88-.33,5.86,4q-.08,13.68,0,27.35c0,4.32-3,4-5.86,4s-5.9.37-5.81-4C150.42,109,150.35,104.38,150.35,99.74Z" transform="translate(1.5)"/><path d="M314.36,281.52c13.33.14,11.48-1.56,11.63,11.66,0,1.83,0,3.65,0,5.48,0,6.26-.22,6.15-6.45,6.43-4.46.19-5.65-1.81-5.18-5.66.58-4.76-1.38-6.94-6.21-6.23-5,.74-5.61-2-5.7-6.16-.09-4.58,1.81-5.91,5.94-5.55C310.36,281.66,312.36,281.52,314.36,281.52Z" transform="translate(1.5)"/><path d="M208.85,328.39c-13.35-.15-11.58,1.69-11.73-11.55,0-1.82,0-3.65,0-5.47,0-6.29.21-6.28,6.41-6.45,3.78-.1,5.79,1,5.24,5.05-.71,5.17,1.33,7.54,6.66,6.79,4.37-.61,5.26,1.72,5.24,5.59s-.59,6.56-5.36,6.08A63.24,63.24,0,0,0,208.85,328.39Z" transform="translate(1.5)"/><path d="M138.55,106c0,1.66,0,3.32,0,5,0,6.46-.59,6.89-7.2,6.7-3-.1-4.72-1-4.66-4.34.09-5,.1-10,0-15s3.38-4.29,6.54-4.42,5.6.53,5.35,4.55C138.42,101,138.55,103.54,138.55,106Z" transform="translate(1.5)"/><path d="M173.6,223c0-1.83,0-3.66,0-5.49,0-6.15.39-6.36,6.52-6.46,3.72-.06,5.62,1.06,5.43,5.12-.22,4.64-.2,9.32,0,14,.19,4.87-3,4.61-6.32,4.7-3.5.09-5.95-.59-5.65-4.86C173.74,227.69,173.61,225.36,173.6,223Z" transform="translate(1.5)"/><path d="M56.53,164.12c0-1.66,0-3.33,0-5,0-6.29.19-6.24,6.43-6.43,4.15-.13,5.73,1.35,5.49,5.5-.27,4.66-.07,9.33-.07,14,0,4.91-3.69,3.69-6.49,3.83s-5.54.19-5.37-3.9C56.62,169.46,56.53,166.79,56.53,164.12Z" transform="translate(1.5)"/><path d="M314.58,176h5c6.25,0,6.5.43,6.49,6.87,0,3.49-1.05,5.25-4.86,5.08-4.79-.21-9.61-.16-14.41,0-4.28.11-4.29-2.67-4.19-5.66s-.76-6.38,4-6.28C309.27,176.08,311.93,176,314.58,176Z" transform="translate(1.5)"/><path d="M138.55,246.39v4.5c0,7-2.35,8.91-9.07,6.95-1.2-.35-2.55-2.52-2.64-3.92-.32-5,0-10-.15-15-.11-4.79,3.23-4.13,6.21-4.18s5.92-.28,5.67,4.14C138.43,241.38,138.55,243.89,138.55,246.39Z" transform="translate(1.5)"/><path d="M232.41,117.46V122c0,7-2.24,8.87-9.09,7.08a4.23,4.23,0,0,1-2.61-2.91c-.25-5.65-.23-11.33-.09-17,.1-4.3,3.55-3.08,6-3.18,2.61-.11,5.7-.64,5.78,3.5.05,2.67,0,5.33,0,8Z" transform="translate(1.5)"/><path d="M208.78,246.37a47.37,47.37,0,0,0,0,6c.61,4.8-1.64,5.85-6,5.85s-6-1.41-5.72-5.75.18-9,0-13.44c-.15-4.7,3.05-4.22,6.08-4.25s5.87-.21,5.62,4.16C208.65,241.38,208.77,243.88,208.78,246.37Z" transform="translate(1.5)"/><path d="M308.09,140.88c-5.23,1.07-5.44-2.08-5.62-6.11-.22-5,2.11-5.66,6.32-5.76,5-.12,5.64,2.24,5.74,6.41C314.66,140.37,312.4,141.59,308.09,140.88Z" transform="translate(1.5)"/><path d="M296.92,304.86c-4.89.92-6.3-1.19-6.31-5.74s1.47-6.11,6.06-6.11,6.14,1.47,6,6.07C302.62,303.45,301.71,306,296.92,304.86Z" transform="translate(1.5)"/><path d="M109,234.73c-5.19,1-5.44-2.09-5.65-6.13-.27-4.95,2-5.66,6.21-5.76,4.88-.11,5.74,2,5.79,6.3C115.42,233.92,113.43,235.47,109,234.73Z" transform="translate(1.5)"/><path d="M185.41,193.73c.92,4.85-1.48,6-5.88,6.05-4.57.06-6-1.52-6.07-6.08-.06-4.74,1.67-5.94,6.13-5.91S186.37,188.94,185.41,193.73Z" transform="translate(1.5)"/><path d="M185.41,88.44c1.06,5.15-1.92,5.56-6,5.72-4.75.19-5.87-1.67-5.91-6.12,0-4.82,2-5.83,6.28-5.85C184.39,82.17,186.28,83.85,185.41,88.44Z" transform="translate(1.5)"/><path d="M144.26,269.84c-5,1-5.72-1.75-5.84-6-.13-4.74,1.69-5.92,6.15-5.95,4.75,0,5.93,1.83,6,6.23C150.54,268.79,148.85,270.66,144.26,269.84Z" transform="translate(1.5)"/><path d="M220.48,182.35c1,5.23-2.12,5.53-6.17,5.69-5,.2-5.58-2.3-5.71-6.44-.16-5,2.33-5.56,6.46-5.69C220.07,175.76,221.17,178.12,220.48,182.35Z" transform="translate(1.5)"/><path d="M156.17,188c5-1.08,5.84,1.54,6,5.87.11,4.83-1.92,5.85-6.28,5.89-4.57,0-5.59-1.81-5.63-6C150.17,189.34,151.34,187,156.17,188Z" transform="translate(1.5)"/><path d="M191.15,70.91c5-1,6.14,1.37,6.23,5.82.1,4.91-2.08,5.77-6.35,5.83-4.51.06-5.69-1.67-5.65-5.92S186.31,69.64,191.15,70.91Z" transform="translate(1.5)"/><path d="M302.48,158.71c1.07,5.08-1.79,5.69-6,5.81-4.68.15-5.86-1.69-5.94-6.13-.09-4.89,2-5.7,6.26-5.75C301.46,152.58,303.39,154.12,302.48,158.71Z" transform="translate(1.5)"/><path d="M320.17,141.09c4.87-1,5.88,1.44,5.94,5.79s-1.36,6.07-6,6.09-5.93-1.7-5.91-6.13S315.36,140.09,320.17,141.09Z" transform="translate(1.5)"/><path d="M285.08,129.26c5.36-1,5.63,2.07,5.83,6.09.24,4.87-1.9,5.67-6.18,5.77-4.93.12-5.69-2.1-5.72-6.29C279,130.17,280.67,128.29,285.08,129.26Z" transform="translate(1.5)"/><path d="M232.28,41.44c1,5.32-2,5.71-6,5.88-4.79.21-5.73-1.78-5.83-6.12-.11-4.92,2-5.73,6.25-5.74C231.22,35.45,233.31,36.94,232.28,41.44Z" transform="translate(1.5)"/><path class="cls-1" d="M250,234.83c4.33,0,8.66.09,13,0,3.12-.08,4.59,1.11,4.56,4.37-.09,8.82,0,17.64,0,26.45,0,2.89-1.3,4.3-4.22,4.29-9,0-18,.15-26.95-.19-1.35-.05-3.68-2.42-3.73-3.78-.34-9.14-.14-18.3-.19-27.45,0-2.88,1.51-3.72,4.1-3.68C241,234.88,245.5,234.83,250,234.83Zm5.5,17.11c1.2-4.88-1.54-5.65-5.8-5.77-4.7-.13-5.88,1.75-5.95,6.16-.08,4.78,1.81,5.8,6.19,5.85C254.6,258.24,256.42,256.67,255.49,251.94Z" transform="translate(1.5)"/><path class="cls-1" d="M44.77,76c0-8,.1-16-.05-24-.06-3.25.69-4.87,4.41-4.83,16.65.15,33.32.11,50,0,3.11,0,4.46.89,4.43,4.27q-.2,25.23,0,50.47c0,3.07-1.17,4.06-4.14,4-16.82-.08-33.65-.11-50.48,0-3.47,0-4.21-1.5-4.17-4.52C44.84,93,44.77,84.46,44.77,76ZM73.57,94c4.66,0,9.32-.09,14,0,3,.08,4.13-1.24,4.1-4.18q-.14-13.23,0-26.45c0-3.12-1-4.56-4.32-4.52q-13.21.19-26.45,0c-3.24,0-4.43,1.33-4.39,4.49q.17,13.22,0,26.45c0,2.95,1.1,4.27,4.1,4.2C64.92,94,69.24,94,73.57,94Z" transform="translate(1.5)"/><path class="cls-1" d="M314.34,76.59c0,8.33-.08,16.66.05,25,0,3.16-1,4.42-4.31,4.39q-25-.19-50,0c-3.6,0-4.55-1.33-4.52-4.7q.18-24.73,0-49.48c0-3.46,1.08-4.67,4.57-4.64q25,.18,50,0c3.33,0,4.33,1.28,4.27,4.45C314.25,59.93,314.34,68.26,314.34,76.59ZM284.81,59c-4.33,0-8.65.08-13,0-2.82-.07-4.38.81-4.35,3.94q.11,13.73,0,27.44c0,2.84,1.36,3.76,4,3.74q13.47-.09,26.95,0c2.94,0,4.2-1.14,4.17-4.15-.1-8.81-.13-17.63,0-26.45.06-3.57-1.55-4.66-4.85-4.54C293.46,59.08,289.13,59,284.81,59Z" transform="translate(1.5)"/><path class="cls-1" d="M74.36,258.05c8.33,0,16.66.07,25,0,2.94,0,4.19.91,4.17,4q-.13,25.49,0,51c0,2.88-1.21,3.78-3.88,3.78q-25.5-.07-51,0c-2.72,0-3.93-.93-3.92-3.77q.1-25.49,0-51c0-3,1.12-4.09,4.13-4C57.37,258.14,65.86,258.05,74.36,258.05ZM56.52,287c0,4.49.1,9,0,13.47-.1,3.14,1.08,4.57,4.35,4.53,8.81-.11,17.63-.09,26.45,0,2.84,0,4.37-.86,4.34-4q-.12-13.73,0-27.44c0-2.87-1.41-3.73-4-3.71q-13.47.09-26.95,0c-3,0-4.23,1.17-4.14,4.16C56.61,278.38,56.52,282.7,56.52,287Z" transform="translate(1.5)"/><path d="M255.49,251.94c.93,4.73-.89,6.3-5.56,6.24-4.38-.05-6.27-1.07-6.19-5.85.07-4.41,1.25-6.29,5.95-6.16C254,246.29,256.69,247.06,255.49,251.94Z" transform="translate(1.5)"/><path d="M73.57,94c-4.33,0-8.65-.08-13,0-3,.07-4.14-1.25-4.1-4.2q.13-13.23,0-26.45c0-3.16,1.15-4.53,4.39-4.49q13.23.16,26.45,0c3.32,0,4.36,1.4,4.32,4.52q-.15,13.22,0,26.45c0,2.94-1.06,4.26-4.1,4.18C82.89,94,78.23,94,73.57,94Z" transform="translate(1.5)"/><path d="M284.81,59c4.32,0,8.65.11,13,0,3.3-.12,4.91,1,4.85,4.54-.14,8.82-.11,17.64,0,26.45,0,3-1.23,4.17-4.17,4.15q-13.49-.12-26.95,0c-2.66,0-4-.9-4-3.74q.09-13.71,0-27.44c0-3.13,1.53-4,4.35-3.94C276.16,59.05,280.48,59,284.81,59Z" transform="translate(1.5)"/><path d="M56.52,287c0-4.33.09-8.65,0-13-.09-3,1.17-4.19,4.14-4.16q13.47.12,26.95,0c2.63,0,4.06.84,4,3.71q-.09,13.71,0,27.44c0,3.11-1.5,4-4.34,4-8.82-.08-17.64-.1-26.45,0-3.27,0-4.45-1.39-4.35-4.53C56.62,296,56.52,291.52,56.52,287Z" transform="translate(1.5)"/></svg>