<svg id="Layer_1" data-name="Layer 1" xmlns="http://www.w3.org/2000/svg" viewBox="0 0 590.71 260.29"><defs><style>.cls-1{fill-rule:evenodd;}</style></defs><g id="Robert_Signature.psd" data-name="Robert Signature.psd"><path class="cls-1" d="M534.35,62.51c-1,6.84-11.62,7.31-17.77,8.77-3.74.63-4.73,4.69-6.57,7.86-4.95,8.53-7.8,17.29-10.68,26.34,2.88.08,5.23-2.58,7.74-5,1.91-1.84,5.08-2.84,6.85-4.69,2.4-2.51,3.66-6.32,5.55-9.16,1.67-2.51,4.27-5.89,6.51-5.89a10.67,10.67,0,0,1,2.57,1.6c3.12,4.88-13.95,19-6.67,22.41,2.39,1.12,6.94-4,9.43-6.36,2.31-2.19,4.57-4,6.23-6.29s3-5,5.42-5.2c1.79-.14,3.43,1.06,4.91,1.32,3,.53,7.9-.15,10.87,3a.59.59,0,0,0,.78-.09c-.36.53.44,1.57.7,2.38.37.17-2.76,4.3-.47,6.29s5.47.28,7.22,1.18,4.39,2.91,3.08,3.49-13.78.08-15.11-3.27.06-5.11-.4-6.15a25.58,25.58,0,0,0-11.21-1.86c-2.72,3.37-5.47,6.66-8.11,10.32a.92.92,0,0,1-.67-.1c-3.57,6.07-10.63,9.11-16.55,6.9-2.15-.8-3.35-2.47-4.7-4.49-2.62.43-4.73,2.6-6.95,4.4-.37.11-.34-.08-.57-.3-1.39,2-7.6,4.72-10.7,3.68-6.79-2.27-2.41-9.3-1.76-14.26.2-.22.5-.13.69-.39.08-1.74,2.37-7.31,3.33-9.57,2.05-4.85,6.19-9.36,6.28-13.81-1.52-.53-3.06.62-4.88,1-2.89.53-3.46.34-6.13,3.31S485.7,86.9,483,90.62a61.33,61.33,0,0,0-7.62,13.1c-1.11,2.65-2.74,5.22-3.37,7.79-.73,3-1.3,10.73-6.19,8.07-5.4-2.94,2.74-11.73,1.79-15.92-3.07.88-5.44,4.19-9.21,2.7-5.6,3.34-10.58,11.62-17.83,7.49-1.88-1.94-.53-5.18,1.74-8.4,2.8-4,11.84-11.46,15.94-12.25a4.91,4.91,0,0,1,5.64,2.72c-4.3-2.85-7.78,2.48-10.77,5.65-2.79,3-5.81,5.16-6.87,8a29.94,29.94,0,0,0,8.42-4.89c1.91-1.7,2.71-5.84,5.41-5.2.35.08.79.68,1.34.7,2.55.11,7.56-4.55,10.34-7.14a41.51,41.51,0,0,0,5.05-5.9,55.71,55.71,0,0,0,3.8-6.31c-.28-.12-.56-.25-.47-.49-3,0-10.06.56-13.43-1.79-4.13-2.87.09-8.25,4.12-7.39a7.64,7.64,0,0,1-1.43,2.27c-.3.42.44.51.26.89,5.91,2.54,10.32,0,15.27-.78,3.16-2.79,5.83-7.92,8.68-12.79s6.35-10.11,9.54-15.37c3.34-5.48,6.94-10.73,9.18-16.06a90.75,90.75,0,0,1,6.93-12.71c1.45-2.16,4.2-3.55,5.67-1,1.36,2.33-1.73,7.23-3.25,9.87L516.92,35c-.81.92-13.6,23.44-18.35,34.89,4.07-.48,8.22-.47,10.62-4a72.66,72.66,0,0,0,3.54-7.2c3.35-6.8,7.55-14,10.4-20.7l3.54-7.19c1.12-2.53,4.5-9.27,5.25-11.84,3-3.53,6.73-16.62,11.57-15,5.52,1.79.46,7-2.65,12.45C525.2,43.94,536.42,49,534.35,62.51Zm-6.06-24.59c-2.47,2.91-8.68,21.26-10.11,26.15,2.11.41,7.06.54,10.08-1.73S526.67,49.81,528.29,37.92Z"/><path class="cls-1" d="M402,89c-.53,3.84-1.94,9-1.14,13.75.21,1.23,1,2.75,1.41,4.26.8,3.18,1.11,6.49,2.72,8.73s4.56,5.74,6.39,6.38c1.05,1,6.81,3.63,9.09,4,5.61,1,11-2.38,14.38-6-4.78.59-11.61,1.91-17.44-1.12-4.51-2.34-6.53-5.68-8.32-9.66-1.18-3.7-2.81-9.48-1.34-15,.32-1.22,1.12-2.45,1.48-3.75.64-2.31.31-4.71,1.1-6.72.67-1.72,2-3.44,2.69-5.13a76.83,76.83,0,0,1,5.58-10.14c1.65-2.67,3.95-5.7,5.73-8.57a33.76,33.76,0,0,1,2.75-3.84c4.66-5.57,10.1-12.07,15.64-17.69a20.33,20.33,0,0,1,4.27-3c1.56-1,2.86-2.39,4.19-3.33,5.1-3.6,10.94-6.51,16.93-3.93,4.7,2,8,4.77,5,10.43,1.12,2.75,3.79.28,3.7-.07,2.69-6.61-2.47-15.12-11.11-16.41a47.06,47.06,0,0,0-6.62.54c-.2.24-9,4.08-13.34,6.83-2,1.26-3.58,3.61-5.71,5.3-3.41,2.71-6.14,4.59-8.81,8-1.87,2.36-4.06,3.83-5.62,5.59-3.34,3.79-5.43,9.66-9.66,10-4,.35-8.92-.07-13-3.06-3.05-2.23-.1-10,3.46-13.53.32-.32,1.2-.55,1.78-1.08,1.88-1.67,2.07-3.12,4.05-2.14.9.52.08,1.6,1.39,2,4.78-4.57-.79-7.9-4.65-6-7.86,3.91-19.71,21.64-7.11,26.95,3.86,1.64,8.26,1.54,12.36,2-5.22,8.69-7.52,15.25-11.9,24.94"/><path class="cls-1" d="M286.25,83.51c-.33.43-16.85,1.61-22.43,2.8-9.17,7-16.45,19.22-24.79,30-2.61,3.37-4.4,6.79-6.95,10.43-1.74,2.5-5.63,6.41-6.38,8-2.31,4.78-6.2,9.24-8.8,13.49-1.54,2.51-3.15,4.15-5,7.19s-4.18,4.75-6.4,8.46c-2.32,3.89-4.84,7.5-7.36,11.22-3.58,5.27-7.95,11.55-12.17,18.51-2.46,4.05-5.62,7.67-7.87,11.72-2.4,4.32-4.82,8.36-7.73,13.3-1.66,2.82-3.36,5.85-5.71,2.53A42,42,0,0,1,171.41,205c5.87-8.49,11.29-17.83,17.3-26.88,1-1.58,2.49-3.77,4-6.21,1.16-1.88,2.85-3.28,4.15-5.11s2.43-4.13,3.89-6c.78-1,1.81-1.76,2.42-2.75s1-2.48,1.68-3.65c2.72-4.45,6.22-8.24,9-12.1,1.16-1.58,2.05-3.51,3.18-5.12,4.88-6.91,9.93-13.55,14.86-20.37-2.85.24-5.58,3.7-8.66,6.27A48.94,48.94,0,0,1,216,127.6c-1.31.54-3.51,1.12-5-.63-.34-1,.24-2.36.71-3.65-4.82,2.83-12.1,11-17.94,13.71-3.64,1.72-10.85-1.7-6.84-7.37-3.89,1.23-8.85,4.47-13.78,2.57-1.76-.68-2.89-1.68-3.19-3.19-2.76,2.14-7.93,5.65-12.2,10.69-2.57,3-6.64,9-9.71,8.74-6.62-.58-2.1-9.24.94-13.85-1.33-.31-1.59.68-2.94,1-1,.2-2.84-.5-4,.17-1.52.88-2.19,3.16-3.44,4.23-2.08,1.76-6.86,4.54-9.39,4.87a4.21,4.21,0,0,1-3.81-2c.48-6.08,6-11.42,9.83-15.47,2.22-2.35,3.18-4.19,6-4.4,1.43.72,2.8,1.47,3,2.59-.46,1.76-1.72.77-2.74.58-3,3.83-6.77,8.06-9.15,12.3a55.86,55.86,0,0,0,6.75-4.51c1-.8,1.22-2,2.13-2.65,1.89-1.43,4.23.2,6.45-1.14a53.8,53.8,0,0,0,5.29-4.51,44,44,0,0,0,6.94-7.17c4.32-5.43,9.65-11.16,13.28-16.92,2.52-4,5.12-6.73,7.93-10.43,1.33-1.76,2.09-3.92,3.3-5.81C188,79.69,192.1,73.47,194,69c1.05-2.48,1.85-9.71,5.33-8.27,4.21,1.75-2.28,12.83-3.72,15.41C190.09,86,184,96.47,177,105.05c-4.67,5.7-8.4,11.93-12.73,17.71-3.5,4.68-7,9.55-10.49,14.87,1.6.58,3-1.51,4.55-2.64,2.61-1.92,5.27-4,8.17-6.27,1.34-1,2.87-1.68,3.78-2.55.76-.73,1.45-2.61,2.7-2.35,2.09.43.82,3.09.92,4.26,3.79,1.89,8.22-.75,11.94-2.78a30.58,30.58,0,0,0,8.29-7c1.34-1.54,1.85-3.45,3.08-4.93s4.27-3.77,5.67-1c-.41,3.39-2.18,6-3.87,8.28-1.27,1.69-3,2.55-4.31,4-1.77,2-3.79,5.3-3.66,7.89,3.79.05,7.36-2.76,10.74-4.67,2.78-1.57,5.39-3.27,8.22-5,1.21-.73,2.83-2.63,4.42-1.45.42.78.11,1.81,0,2.77,5.46-2.21,9.85-6.73,14.82-10.58,8.14-6.32,15.87-12.71,22.84-24-5.28-.33-10.06,1.91-14.87,3.25-4,1.11-8.08,1.23-12.11,2.19-1.17-.81-2.62-1.05-3.25-1.71,1.75-1.58,4.17-1.56,6.19-2s4-1.14,6.08-1.83c4-1.35,8.17-2.18,12.35-3.57,3.58-1.19,9.4-1.37,12.08-4a16.57,16.57,0,0,0,1.33-2.07c3.24-4.36,6.77-8.21,10.12-12.29,6.54-8,13.86-16.92,21.16-23.09,1.6-1.36,2.81-3.29,4.53-4.92,2.16-2,6.16-5.15,8.05-5.58a3.07,3.07,0,0,1,3.9,2.31c-1.48,3-3.94,5-5.86,7-3.31,3.45-6.19,7.15-9.29,10.72-4.4,5.06-9.53,9.45-13.6,14.74-3.17,4.12-6.72,7.56-9.7,11.5,4.19,0,14.88-2.34,24-3.53,15.42-1.93,44.74-4.94,53.39-5.59,6.13-.45,10.24-1.14,16.84-1.45,2.28-.11,6.73,0,8.2-1.23,1.08-.89,2-3.53,2.8-5.32A133.75,133.75,0,0,1,388.5,39.65c-1.07.19-1.88,1.64-2.91,2.74-2.44,2.62-5.84,6.2-8.46,9.14-1.64,1.84-2.95,4.75-4.69,6.6-1.15,1.22-2.91,2.25-4.29,3.53-2,1.89-3.61,4.17-6,3.12-1.31-.57-1.1-1.77-1.86-2.49,1.64-7.56,8.31-13.64,11.39-21.19-1.88-.5-2.71,1.31-4.26,2.54-2.27,1.81-5.05,3-7.34,4.7-1.5,1.1-2.74,2.81-4.31,4-2.1,1.63-4.36,2.25-6.37,4.7-2.55.13-5.48.3-8.67.73-2.36.32-11.13,1.36-10.49-2.75s5.73-7.29,9.07-9.83a37,37,0,0,1,7.13-4.3c2.9-1.26,6.29-6,10.22-3.68,3.16,1.89.25,4.88-.49,8.8,1.78-.27,2.52-2.12,4-3.43,2-1.78,5.46-3.42,8.24-5.48,1.89-1.4,6.14-4.34,8.32-4.69a3.52,3.52,0,0,1,3.07,1.12c2.67,3.71-6,14.61-8.6,19.13,6-5.43,12.39-14.22,18.8-19.55,1.89-1.57,6.73-7.06,8.56-3.3,1.58,3.23-3.74,9-5.84,12-1.64,2.36-2.32,4.86-3.54,7.2-4,7.79-7.14,12.33-10.62,18.82,4.25,1,8.59-.08,13.4,0a93,93,0,0,1,10.95.48c-8.51,3.65-18.19,3.3-27.17,5.34-3.28,7.31-6.85,14-10.61,21.09-1,1.83-1,3.61-1.83,5.33-.51,1.07-1.38,2-1.95,3.25-.87,1.89-1.24,4.09-2.14,5.92-1.46,3-3.4,5.75-4.66,8.87-2.34,5.79-4.19,11.72-6.7,17.37-.68,1.53-1.75,3-2.38,4.53-1.22,3-1.91,6.39-3,9.48-1.62,4.45-3.51,8.36-5,12.72-.92,2.72-1.13,6.39-2.23,8.4a35.76,35.76,0,0,0-2.86,7.3c-.41,1.44-.34,3.09-.93,4.54-.48,1.2-1.36,2.31-1.86,3.55-1.58,3.89-1.59,8.71-4.68,12.13-4.49-1.53-2.34-6.84-.78-11.48.88-2.64,1-5.36,1.6-7.21.75-2.25,1.63-4.41,2.26-6.61s.89-4.76,1.58-6.72c1-2.9,2.64-5.42,3.38-8.29,1.71-6.65,3.86-11.65,6.94-18.74,1.49-3.45,2.39-7.25,3.65-10.66,2.38-6.42,5.95-12.11,8.19-18.34.47-1.33.56-2.68,1.1-4,.83-2,2.32-3.67,3.2-5.62,2-4.38,3.81-10,7-14.2-.58-2.27,4.67-8.67,4.47-11.74-4.76.14-9.49.59-14.22,1.08-9.74,1-50.73,6.18-50.73,6.18M335.6,53.6A53.09,53.09,0,0,0,346.88,53c1.88-3.06,4.12-7.39,6-10.44-.24-.14-.13-.4-.47-.5A72.89,72.89,0,0,0,335.6,53.6Z"/><path class="cls-1" d="M63.22,103.6c4.84-3.83,9.52-7.78,14.28-11.86,1.59-1.36,3.56-2.08,5.16-3.33,2.93-2.28,5.13-5.81,8.86-6.66,5.06-5,11.54-8.7,17.32-12.53s11.45-7.94,17.38-11.75c6.48-4.15,12.49-7.43,19-11.13a71.39,71.39,0,0,1,12.44-6.05c1.93-.68,4-1.21,5.7.74,1.1,5.88-5.08,11.23-9.55,15.86-1.43,1.47-2.77,3.12-4.14,4.62s-3.17,2.8-4.41,4.22c-.69.78-1,1.9-1.64,2.66-1.31,1.53-2.87,2.73-4.23,4.32s-2.76,2.55-4,3.93c-1,1.09-1.58,2.59-2.65,3.64s-2.47,1.51-3.48,2.45c-5.11,4.77-9.67,9.89-14.46,14.53,3.28,2,9,.77,13.23,2.18a9.81,9.81,0,0,1,5.29,4.29c1.31,2.85-.86,10.69-2.62,14.73-2.4,5.46-6.44,10.79-9.95,15.65-11.73,16.27-26.61,34.51-39.92,50-2.26,2.62-4.28,5.07-6.48,8.16s-4.61,6.11-6.9,8.95-4,4.14-6.49,8.17c-2.18,3.47-5.14,7-7.83,10.72a30.52,30.52,0,0,0-3.6,5.91c-1.85,4.07-5.49,8.44-7.22,12.81-1.92,4.85-2.9,10.45-5.33,14.31-4.93-.32-3.56-7.21-2-11.39.63-1.77,2-3.56,2.9-5.52,2.05-4.66,3.84-9.72,6-12.72.83-1.18,1.91-2,2.52-2.95s1-2.48,1.58-3.45c1.53-2.53,3.33-4.91,5-7.19s3.68-4.23,5.66-6.59c1.32-1.57,2.26-3.55,3.48-5.21s2.82-2.84,4-4.43c.53-.7.79-1.84,1.34-2.56,1.17-1.5,2.85-2.72,4.12-4.12s2.4-3,3.65-4.63c6.86-8.73,14.51-16,21.33-25.27,2.53-3.41,5.67-6.4,8.29-9.73s5.26-7.2,8-10.62,6.17-6.79,8.41-10.43c.52-.85.64-1.84,1.16-2.66s1.41-1.45,1.92-2.26c1.82-3,4.23-8.79,4.67-12.14.23-1.68-.05-4.32-.42-4.75-1.5-1.72-6.12-1.19-8.79-1.35-3.75-.24-11.16-.85-10.22-5.13.48-2.2,4.49-5.72,6.07-7.37,5.78-6.06,12.48-12.57,18.2-18.86.78-.86,2.18-2,3.41-3.24s2.2-2.66,3.13-3.64c.78-.82,2.24-1.55,2.89-2.25,2.82-3,5.3-6.72,8.29-9.74,2.35-2.38,5.4-4.06,6.37-7.47-8.6,1.84-15.4,7.83-22.85,12.4-3.18,1.95-6.49,3.56-9.69,5.46-1.63,1-3.06,2.35-4.68,3.33-4.39,2.67-8.14,5.31-12.52,8.52-2.55,1.87-5.33,3.22-7.84,5.18s-5.39,3.46-7.76,5.49c-1.31,1.12-2.34,2.37-3.7,3.33-1.17.83-2.69,1.3-3.86,2.25-2.81,2.28-5.57,5.48-8.62,8,4.46-.23,8.89-2.67,13.36-4.55,7.3-3.08,16-6.38,22.21-14,1.74-.43,2.66-2.69,4.52-1.64,2.28,1.27-.41,5.5-2,7-1,.92-2.62,1.79-3.87,2.74-3.53,2.68-7.42,5.33-11.08,9-2.35,2.36-4.76,4.82-7,7.37s-4.64,4.64-7,6.87c-4.79,4.49-8.78,9.43-13.08,13.75-1.31,1.32-3,2.46-4.4,3.73s-2.72,3-4.12,4.13c-5.69,4.78-11.82,8.59-18,12.92-2.28,1.59-4,3.26-6.08,4.61s-4.19,1.92-6.32,3.21c-1,.58-1.62,1.67-2.7,2.36a54.83,54.83,0,0,1-10.45,4.57c-2.88,1-7.83,2.12-8.65-2.54-.7-4,3.41-8.23,5.73-11.83.65-1,.93-2,1.56-2.95a35.85,35.85,0,0,1,4.13-4.62c1.49-1.54,2.82-3.44,4.14-4.62.66-.59,1.5-.52,2.27-1.07,1.72-1.26,3.4-3.7,5.33-5.51s3.66-3.91,5.62-5.59c1.45-1.25,3.38-1.88,4.76-3,3.39-2.83,5.94-6.4,9.51-8.33m3,3.09c-7.17,5.92-14.57,13-21.72,19.52-1,.89-2.29,1.36-3.19,2.35s-1.18,2.09-2,3c-.62.63-1.58.91-2.28,1.56-2.19,2.05-3.7,5-5.68,7.08-2.2,2.37-4.68,4.92-4.66,8.87,3.62-.4,6.83-2.47,9.94-4.08,1.18-.61,2.52-.76,3.64-1.35,1.75-.94,3.44-2.67,5.47-3.92,2.59-1.6,5.26-3.17,7.74-5,1.63-1.2,3.76-1.91,5.35-3.23s2.8-2.48,4.4-3.72a166.19,166.19,0,0,0,13.41-12.07c1.68-1.63,4.68-3.07,5.89-4.71s2.33-2.23,3.8-3.53c2.55-2.25,4.51-5.14,6.66-7.57,2.86-3.22,6.64-5.44,9-9.33,0-.18,0-.31-.27-.4-8.91,3.2-17.43,7.75-26.38,10.79"/></g></svg>