<svg id="Layer_1" data-name="Layer 1" xmlns="http://www.w3.org/2000/svg" viewBox="0 0 512 512"><defs><style>.cls-1{fill:#304366;}.cls-2{fill:#47bf83;}</style></defs><rect class="cls-1" width="512" height="512"/><path class="cls-2" d="M181.55,231.1l15.69-1a12,12,0,0,0,2.07,5.82,8.73,8.73,0,0,0,7.28,3.24,8,8,0,0,0,5.44-1.66,4.93,4.93,0,0,0,1.91-3.84,4.87,4.87,0,0,0-1.82-3.71q-1.81-1.64-8.44-3.09-10.85-2.44-15.47-6.48a13,13,0,0,1-4.66-10.31,14,14,0,0,1,2.38-7.77,15.84,15.84,0,0,1,7.17-5.75q4.8-2.08,13.13-2.09,10.23,0,15.6,3.8t6.38,12.11l-15.54.91a7.24,7.24,0,0,0-8.08-6.88,6.56,6.56,0,0,0-4.33,1.22,3.73,3.73,0,0,0-1.46,3,3,3,0,0,0,1.2,2.3c.78.7,2.62,1.35,5.54,2q10.8,2.32,15.48,4.71a16.32,16.32,0,0,1,6.81,5.92,15,15,0,0,1,2.13,7.9,16.91,16.91,0,0,1-2.84,9.46,17.75,17.75,0,0,1-7.93,6.57,31.94,31.94,0,0,1-12.85,2.24q-13.62,0-18.86-5.24A20.66,20.66,0,0,1,181.55,231.1Z"/><path class="cls-2" d="M235.46,229.53a19.37,19.37,0,0,1,6-14.58q6-5.73,16.12-5.73,11.61,0,17.55,6.73a21.05,21.05,0,0,1-1.15,28q-5.91,5.7-16.36,5.7-9.31,0-15.07-4.74A19,19,0,0,1,235.46,229.53Zm14.85,0q0,5.16,2.09,7.64a6.85,6.85,0,0,0,10.52,0q2.06-2.44,2.06-7.83,0-5-2.08-7.48a6.45,6.45,0,0,0-5.13-2.46,6.69,6.69,0,0,0-5.35,2.5Q250.31,224.4,250.31,229.5Z"/><path class="cls-2" d="M315.83,233.61l14.09,1.6a19.81,19.81,0,0,1-3.82,7.63,17.75,17.75,0,0,1-6.79,5,26.66,26.66,0,0,1-10.5,1.79,38.89,38.89,0,0,1-10.25-1.15,17.82,17.82,0,0,1-7-3.71,18.69,18.69,0,0,1-4.63-6,21.27,21.27,0,0,1-1.67-9.16,21.56,21.56,0,0,1,2-9.93,17.92,17.92,0,0,1,4.07-5.22,18.88,18.88,0,0,1,5.32-3.44,29.64,29.64,0,0,1,11.1-1.78q9.47,0,14.43,3.39a17.8,17.8,0,0,1,7,9.9l-14,1.85a6.44,6.44,0,0,0-2.38-3.73,7.78,7.78,0,0,0-4.64-1.25,7.49,7.49,0,0,0-5.95,2.63q-2.28,2.64-2.28,8,0,4.75,2.26,7.23a7.46,7.46,0,0,0,5.75,2.47,8,8,0,0,0,4.9-1.49A8.91,8.91,0,0,0,315.83,233.61Z"/><path class="cls-2" d="M337.27,195.39h14.82v10.08H337.27Zm0,14.7h14.82v38.66H337.27Z"/><path class="cls-2" d="M375.06,222.62l-14.16-1.5a15.81,15.81,0,0,1,2.31-5.84,12.75,12.75,0,0,1,4.35-3.69,18.23,18.23,0,0,1,5.6-1.75,45.57,45.57,0,0,1,7.72-.62,61,61,0,0,1,10.7.75,13.68,13.68,0,0,1,6.74,3.11,10.94,10.94,0,0,1,3,4.64,16.69,16.69,0,0,1,1.09,5.73v17.08a20.51,20.51,0,0,0,.35,4.27,18.75,18.75,0,0,0,1.51,3.95h-13.9a14.1,14.1,0,0,1-1.1-2.27,16.77,16.77,0,0,1-.51-2.46,19.16,19.16,0,0,1-5.78,4,24.06,24.06,0,0,1-9.14,1.61q-6.92,0-10.5-3.21a10.18,10.18,0,0,1-3.59-7.9,10.32,10.32,0,0,1,2.59-7.24q2.58-2.84,9.53-4.22,8.34-1.68,10.82-2.35a50.63,50.63,0,0,0,5.24-1.77c0-1.82-.38-3.09-1.13-3.82s-2.08-1.09-4-1.09a10.31,10.31,0,0,0-5.46,1.16A6.36,6.36,0,0,0,375.06,222.62Zm12.85,7.79c-2,.72-4.16,1.37-6.37,1.93q-4.52,1.2-5.72,2.36a3.79,3.79,0,0,0,0,5.59,5.18,5.18,0,0,0,3.59,1.11,9.21,9.21,0,0,0,4.6-1.2,7.34,7.34,0,0,0,3-2.93,9.87,9.87,0,0,0,.89-4.5Z"/><path class="cls-2" d="M411.79,195.39h14.85v53.36H411.79Z"/><path class="cls-2" d="M258.06,282.8h-29.7a9.57,9.57,0,0,0,1.93,5.31,7,7,0,0,0,5.6,2.52,8.4,8.4,0,0,0,4.15-1.1,9.51,9.51,0,0,0,2.59-2.44l14.6,1.35a21,21,0,0,1-8.09,8.36q-4.72,2.52-13.57,2.53-7.68,0-12.09-2.17a17.78,17.78,0,0,1-7.3-6.88,20.75,20.75,0,0,1-2.89-11.08q0-9.07,5.81-14.67t16-5.61q8.3,0,13.1,2.51a16.93,16.93,0,0,1,7.32,7.28q2.52,4.77,2.51,12.42ZM243,275.7q-.44-4.29-2.31-6.15a7.24,7.24,0,0,0-10.57.95,10.2,10.2,0,0,0-1.71,5.2Z"/><path class="cls-2" d="M260.61,259.79h15.63l8,25.74,7.4-25.74h14.6L290.89,301.1q-2.62,7.06-5.35,9.54c-2.58,2.34-6.49,3.5-11.76,3.5a85.2,85.2,0,0,1-9.89-.87l-1.17-10.34a23.44,23.44,0,0,0,7.13,1,6.94,6.94,0,0,0,4.24-1.2,9.14,9.14,0,0,0,2.74-4.31Z"/><path class="cls-2" d="M352.05,282.8h-29.7a9.57,9.57,0,0,0,1.93,5.31,7,7,0,0,0,5.6,2.52,8.4,8.4,0,0,0,4.15-1.1,9.66,9.66,0,0,0,2.59-2.44l14.59,1.35a20.91,20.91,0,0,1-8.08,8.36q-4.72,2.52-13.57,2.53-7.68,0-12.09-2.17a17.72,17.72,0,0,1-7.3-6.88,20.75,20.75,0,0,1-2.89-11.08q0-9.07,5.8-14.67t16-5.61q8.29,0,13.1,2.51a16.93,16.93,0,0,1,7.32,7.28q2.5,4.77,2.51,12.42ZM337,275.7q-.44-4.29-2.31-6.15a7.24,7.24,0,0,0-10.57.95,10.29,10.29,0,0,0-1.72,5.2Z"/><path class="cls-2" d="M356.24,287.71l14.7-1.38a7.27,7.27,0,0,0,2.55,3.75,7.59,7.59,0,0,0,4.37,1.13,7.42,7.42,0,0,0,4.62-1.27,2.85,2.85,0,0,0,1.28-2.37,2.7,2.7,0,0,0-1.68-2.47,30.76,30.76,0,0,0-6.37-1.53A66.49,66.49,0,0,1,365,281.09a11.37,11.37,0,0,1-5.06-3.88,10.06,10.06,0,0,1-2.05-6.22,10.19,10.19,0,0,1,2.22-6.58,13.26,13.26,0,0,1,6.11-4.13,32.79,32.79,0,0,1,10.45-1.36q6.91,0,10.21,1.06a13.27,13.27,0,0,1,5.5,3.27,17.2,17.2,0,0,1,3.65,6l-14,1.38a4.76,4.76,0,0,0-1.82-2.73,7.39,7.39,0,0,0-4.22-1.16,6,6,0,0,0-3.66.89,2.65,2.65,0,0,0-1.14,2.16,2.29,2.29,0,0,0,1.45,2.14,23,23,0,0,0,6.34,1.31,43.66,43.66,0,0,1,11,2.33,12,12,0,0,1,5.51,4.26,10.39,10.39,0,0,1,1.92,6.07,11.94,11.94,0,0,1-2,6.51,13.57,13.57,0,0,1-6.37,5q-4.35,1.88-11.84,1.88-10.61,0-15.09-3A13.55,13.55,0,0,1,356.24,287.71Z"/><path class="cls-2" d="M37.47,254.68s19.89-41.77,53.17-42.3,51.9,42.3,51.9,42.3S122,296.24,91.25,296.24C56.47,296.24,37.47,254.68,37.47,254.68ZM91.69,289.6c25.87,0,43.16-35,43.16-35s-15.66-36-43.67-35.59-44.74,35.59-44.74,35.59S62.43,289.6,91.69,289.6Z"/><path class="cls-2" d="M106.29,246.78v6.36h5.24v2.48h-5.24V262h5.24v2.49h-5.24v2.91a2,2,0,0,1-2,2h-3.68v5.24H98.15v-5.24H91.79v5.24H89.31v-5.24H83v5.24H80.46v-5.24H77.81a2,2,0,0,1-2-2V264H71v-2.48h4.87v-6.36H71v-2.49h4.87v-6.35H71v-2.49h4.87v-2.91a2,2,0,0,1,2-2H81V234h2.48v4.87h6.36V234h2.49v4.87h6.36V234h2.48v4.87h3.17a2,2,0,0,1,2,2v3.43h5.24v2.48ZM102,263.58V245a1.43,1.43,0,0,0-1.44-1.44H82A1.43,1.43,0,0,0,80.54,245v18.54A1.43,1.43,0,0,0,82,265h18.54A1.43,1.43,0,0,0,102,263.58Z"/><rect class="cls-2" x="84.65" y="247.71" width="13.21" height="13.21"/><path class="cls-2" d="M126,254.31a34.77,34.77,0,1,1-34.77-34.77A34.77,34.77,0,0,1,126,254.31ZM91.25,225.19a29.12,29.12,0,1,0,29.12,29.12A29.12,29.12,0,0,0,91.25,225.19Z"/></svg>