<?xml version="1.0" encoding="UTF-8" standalone="no"?><!-- Generator: Gravit.io --><svg xmlns="http://www.w3.org/2000/svg" xmlns:xlink="http://www.w3.org/1999/xlink" style="isolation:isolate" viewBox="0 0 808 117" width="808pt" height="117pt"><defs><clipPath id="_clipPath_AAYORdelzlUR8uiRlP2XjAiJIV8oKrF0"><rect width="808" height="117"/></clipPath></defs><g clip-path="url(#_clipPath_AAYORdelzlUR8uiRlP2XjAiJIV8oKrF0)"><path d=" M 512.813 34.021 L 512.813 34.021 Q 512.448 33.859 511.05 33.474 L 511.05 33.474 L 511.05 33.474 Q 509.652 33.089 507.281 32.725 L 507.281 32.725 L 507.281 32.725 Q 504.91 32.36 502.154 32.36 L 502.154 32.36 L 502.154 32.36 Q 493.765 32.36 489.246 38.459 L 489.246 38.459 L 489.246 38.459 Q 484.728 44.559 484.728 56.028 L 484.728 56.028 L 484.728 56.028 Q 484.728 66.808 489.591 72.198 L 489.591 72.198 L 489.591 72.198 Q 494.454 77.588 502.6 77.588 L 502.6 77.588 L 502.6 77.588 Q 506.491 77.588 510.179 76.089 L 510.179 76.089 L 510.179 76.089 Q 513.867 74.589 516.521 72.847 L 516.521 72.847 L 516.521 72.847 Q 519.176 71.104 519.176 70.942 L 519.176 70.942 L 522.499 76.332 L 522.499 76.332 Q 522.499 76.575 519.52 78.865 L 519.52 78.865 L 519.52 78.865 Q 516.542 81.155 511.921 83.1 L 511.921 83.1 L 511.921 83.1 Q 507.301 85.045 501.749 85.045 L 501.749 85.045 L 501.749 85.045 Q 489.145 85.045 482.174 77.669 L 482.174 77.669 L 482.174 77.669 Q 475.204 70.293 475.204 56.433 L 475.204 56.433 L 475.204 56.433 Q 475.204 46.99 478.608 39.959 L 478.608 39.959 L 478.608 39.959 Q 482.012 32.927 488.274 29.118 L 488.274 29.118 L 488.274 29.118 Q 494.535 25.308 503.005 25.308 L 503.005 25.308 L 503.005 25.308 Q 507.058 25.308 511.212 26.22 L 511.212 26.22 L 511.212 26.22 Q 515.366 27.132 518.527 28.246 L 518.527 28.246 L 518.527 28.246 Q 521.688 29.361 521.688 29.442 L 521.688 29.442 L 521.283 43.545 L 515.042 43.545 L 512.813 34.021 Z  M 419.149 77.588 L 419.149 36.088 L 416.636 42.33 L 403.789 68.47 L 397.143 68.875 L 384.295 41.924 L 382.188 36.088 L 382.188 77.588 L 390.091 79.25 L 390.091 84.235 L 367.679 84.235 L 367.679 79.25 L 374.731 77.588 L 374.731 32.765 L 367.679 31.104 L 367.679 26.564 L 386.362 26.119 L 401.357 59.351 L 417.042 26.564 L 434.509 26.119 L 434.509 31.104 L 427.417 32.765 L 427.417 77.588 L 434.509 79.25 L 434.509 84.235 L 411.246 84.235 L 411.246 79.25 L 419.149 77.588 Z  M 15.375 77.588 L 15.375 32.765 L 8.323 31.104 L 8.323 26.564 L 24.088 26.119 L 33.207 26.119 L 33.207 26.119 Q 42.001 26.119 46.946 30.111 L 46.946 30.111 L 46.946 30.111 Q 51.89 34.103 51.89 41.073 L 51.89 41.073 L 51.89 41.073 Q 51.89 53.272 41.11 57.244 L 41.11 57.244 L 41.11 57.244 Q 43.096 58.986 46.095 64.741 L 46.095 64.741 L 52.66 77.913 L 58.537 79.25 L 58.537 84.235 L 46.095 84.235 L 39.043 68.875 L 39.043 68.875 Q 37.057 64.579 35.558 62.532 L 35.558 62.532 L 35.558 62.532 Q 34.058 60.486 32.356 59.696 L 32.356 59.696 L 32.356 59.696 Q 30.654 58.905 27.817 58.905 L 27.817 58.905 L 24.088 58.905 L 24.088 77.588 L 31.14 79.25 L 31.14 84.235 L 8.323 84.235 L 8.323 79.25 L 15.375 77.588 Z  M 30.33 52.705 L 30.33 52.705 Q 36.368 52.705 39.772 49.969 L 39.772 49.969 L 39.772 49.969 Q 43.177 47.233 43.177 42.33 L 43.177 42.33 L 43.177 42.33 Q 43.177 38.196 40.279 35.48 L 40.279 35.48 L 40.279 35.48 Q 37.381 32.765 32.802 32.765 L 32.802 32.765 L 24.088 32.765 L 24.088 52.705 L 30.33 52.705 Z " fill="rgb(0,0,0)"/><path d=" M 88 35.614 L 88 35.614 Q 94.572 35.614 99.625 38.776 L 99.625 38.776 L 99.625 38.776 Q 104.678 41.938 107.468 47.518 L 107.468 47.518 L 107.468 47.518 Q 110.258 53.098 110.258 60.166 L 110.258 60.166 L 110.258 60.166 Q 110.258 67.42 106.042 73.558 L 106.042 73.558 L 106.042 73.558 Q 101.826 79.696 95.564 83.261 L 95.564 83.261 L 95.564 83.261 Q 89.302 86.826 83.598 86.826 L 83.598 86.826 L 83.598 86.826 Q 77.026 86.826 71.973 83.695 L 71.973 83.695 L 71.973 83.695 Q 66.92 80.564 64.13 74.984 L 64.13 74.984 L 64.13 74.984 Q 61.34 69.404 61.34 62.336 L 61.34 62.336 L 61.34 62.336 Q 61.34 55.082 65.556 48.913 L 65.556 48.913 L 65.556 48.913 Q 69.772 42.744 76.034 39.179 L 76.034 39.179 L 76.034 39.179 Q 82.296 35.614 88 35.614 L 88 35.614 Z  M 84.404 40.822 L 84.404 40.822 Q 80.312 40.822 76.933 43.209 L 76.933 43.209 L 76.933 43.209 Q 73.554 45.596 71.632 49.843 L 71.632 49.843 L 71.632 49.843 Q 69.71 54.09 69.71 59.36 L 69.71 59.36 L 69.71 59.36 Q 69.71 65.436 71.632 70.489 L 71.632 70.489 L 71.632 70.489 Q 73.554 75.542 77.491 78.58 L 77.491 78.58 L 77.491 78.58 Q 81.428 81.618 87.194 81.618 L 87.194 81.618 L 87.194 81.618 Q 91.286 81.618 94.665 79.231 L 94.665 79.231 L 94.665 79.231 Q 98.044 76.844 99.966 72.597 L 99.966 72.597 L 99.966 72.597 Q 101.888 68.35 101.888 63.08 L 101.888 63.08 L 101.888 63.08 Q 101.888 56.942 99.966 51.889 L 99.966 51.889 L 99.966 51.889 Q 98.044 46.836 94.138 43.829 L 94.138 43.829 L 94.138 43.829 Q 90.232 40.822 84.404 40.822 L 84.404 40.822 Z  M 149.566 59.36 L 149.566 59.36 Q 154.34 60.724 157.068 63.948 L 157.068 63.948 L 157.068 63.948 Q 159.796 67.172 159.796 71.388 L 159.796 71.388 L 159.796 71.388 Q 159.796 75.294 156.665 78.735 L 156.665 78.735 L 156.665 78.735 Q 153.534 82.176 148.853 84.222 L 148.853 84.222 L 148.853 84.222 Q 144.172 86.268 139.956 86.268 L 139.956 86.268 L 139.956 86.268 Q 136.856 86.268 133.88 85.958 L 133.88 85.958 L 133.88 85.958 Q 128.92 85.648 126.192 85.648 L 126.192 85.648 L 118.318 85.648 L 118.318 83.726 L 124.146 79.138 L 124.146 41.442 L 117.698 39.334 L 118.938 36.854 L 126.13 36.854 L 126.13 36.854 Q 131.772 36.854 137.228 36.482 L 137.228 36.482 L 137.228 36.482 Q 141.444 36.234 143.428 36.234 L 143.428 36.234 L 143.428 36.234 Q 147.582 36.234 150.744 37.846 L 150.744 37.846 L 150.744 37.846 Q 153.906 39.458 155.611 42.217 L 155.611 42.217 L 155.611 42.217 Q 157.316 44.976 157.316 48.386 L 157.316 48.386 L 157.316 48.386 Q 157.316 51.486 155.177 54.307 L 155.177 54.307 L 155.177 54.307 Q 153.038 57.128 149.566 59.236 L 149.566 59.236 L 149.566 59.36 Z  M 148.946 51.486 L 148.946 51.486 Q 148.946 46.588 146.342 43.488 L 146.342 43.488 L 146.342 43.488 Q 143.738 40.388 138.592 40.388 L 138.592 40.388 L 138.592 40.388 Q 134.872 40.388 131.896 42.496 L 131.896 42.496 L 131.896 58.926 L 140.762 58.926 L 140.762 58.926 Q 144.606 58.926 146.776 56.973 L 146.776 56.973 L 146.776 56.973 Q 148.946 55.02 148.946 51.424 L 148.946 51.424 L 148.946 51.486 Z  M 141.692 81.742 L 141.692 81.742 Q 146.156 81.742 148.791 79.51 L 148.791 79.51 L 148.791 79.51 Q 151.426 77.278 151.426 73.496 L 151.426 73.496 L 151.426 73.496 Q 151.426 68.66 148.605 65.684 L 148.605 65.684 L 148.605 65.684 Q 145.784 62.708 140.204 62.522 L 140.204 62.522 L 140.204 62.522 Q 139.77 62.584 139.026 62.584 L 139.026 62.584 L 131.896 62.584 L 131.896 80.13 L 131.896 80.13 Q 136.05 81.804 141.692 81.804 L 141.692 81.804 L 141.692 81.742 Z  M 207.784 86.702 L 204.436 85.586 L 167.236 85.586 L 167.236 83.664 L 173.064 79.076 L 173.064 41.504 L 166.616 39.334 L 167.856 36.854 L 203.816 36.854 L 207.164 35.738 L 207.164 49.998 L 205.304 50.618 L 197.926 39.644 L 180.814 39.644 L 180.814 59.298 L 190.548 59.298 L 195.074 51.362 L 196.996 51.362 L 196.996 70.21 L 194.516 71.45 L 190.61 62.088 L 180.814 62.088 L 180.814 82.796 L 197.678 82.796 L 205.924 70.582 L 207.784 71.202 L 207.784 86.702 Z  M 264.204 83.23 L 262.964 85.71 L 251.432 85.71 L 237.792 63.7 L 234.878 61.592 L 235.808 59.732 L 239.28 59.732 L 239.28 59.732 Q 243.496 59.732 245.945 57.593 L 245.945 57.593 L 245.945 57.593 Q 248.394 55.454 248.394 51.734 L 248.394 51.734 L 248.394 51.734 Q 248.394 46.836 245.666 43.581 L 245.666 43.581 L 245.666 43.581 Q 242.938 40.326 237.73 40.326 L 237.73 40.326 L 237.73 40.326 Q 234.258 40.326 231.344 42.372 L 231.344 42.372 L 231.344 80.998 L 237.854 83.23 L 236.614 85.71 L 217.766 85.71 L 217.766 83.788 L 223.594 79.2 L 223.594 41.504 L 217.146 39.396 L 218.386 36.916 L 225.578 36.916 L 225.578 36.916 Q 231.22 36.916 236.676 36.544 L 236.676 36.544 L 236.676 36.544 Q 240.644 36.296 242.566 36.296 L 242.566 36.296 L 242.566 36.296 Q 246.72 36.296 249.975 37.97 L 249.975 37.97 L 249.975 37.97 Q 253.23 39.644 254.997 42.496 L 254.997 42.496 L 254.997 42.496 Q 256.764 45.348 256.764 48.758 L 256.764 48.758 L 256.764 48.758 Q 256.764 51.858 254.842 54.679 L 254.842 54.679 L 254.842 54.679 Q 252.92 57.5 249.789 59.577 L 249.789 59.577 L 249.789 59.577 Q 246.658 61.654 243.186 62.708 L 243.186 62.708 L 247.216 64.072 L 256.826 79.572 L 264.204 83.23 Z  M 311.386 35.738 L 311.386 51.238 L 309.526 51.858 L 301.28 39.644 L 293.716 39.644 L 293.716 80.874 L 300.226 83.106 L 298.986 85.586 L 280.138 85.586 L 280.138 83.664 L 285.966 79.076 L 285.966 39.644 L 278.588 39.644 L 270.342 51.858 L 268.482 51.238 L 268.482 35.738 L 271.83 36.854 L 308.038 36.854 L 311.386 35.738 Z " fill="rgb(0,0,0)"/><path d=" M 563 34.614 L 563 34.614 Q 569.572 34.614 574.625 37.776 L 574.625 37.776 L 574.625 37.776 Q 579.678 40.938 582.468 46.518 L 582.468 46.518 L 582.468 46.518 Q 585.258 52.098 585.258 59.166 L 585.258 59.166 L 585.258 59.166 Q 585.258 66.42 581.042 72.558 L 581.042 72.558 L 581.042 72.558 Q 576.826 78.696 570.564 82.261 L 570.564 82.261 L 570.564 82.261 Q 564.302 85.826 558.598 85.826 L 558.598 85.826 L 558.598 85.826 Q 552.026 85.826 546.973 82.695 L 546.973 82.695 L 546.973 82.695 Q 541.92 79.564 539.13 73.984 L 539.13 73.984 L 539.13 73.984 Q 536.34 68.404 536.34 61.336 L 536.34 61.336 L 536.34 61.336 Q 536.34 54.082 540.556 47.913 L 540.556 47.913 L 540.556 47.913 Q 544.772 41.744 551.034 38.179 L 551.034 38.179 L 551.034 38.179 Q 557.296 34.614 563 34.614 L 563 34.614 Z  M 559.404 39.822 L 559.404 39.822 Q 555.312 39.822 551.933 42.209 L 551.933 42.209 L 551.933 42.209 Q 548.554 44.596 546.632 48.843 L 546.632 48.843 L 546.632 48.843 Q 544.71 53.09 544.71 58.36 L 544.71 58.36 L 544.71 58.36 Q 544.71 64.436 546.632 69.489 L 546.632 69.489 L 546.632 69.489 Q 548.554 74.542 552.491 77.58 L 552.491 77.58 L 552.491 77.58 Q 556.428 80.618 562.194 80.618 L 562.194 80.618 L 562.194 80.618 Q 566.286 80.618 569.665 78.231 L 569.665 78.231 L 569.665 78.231 Q 573.044 75.844 574.966 71.597 L 574.966 71.597 L 574.966 71.597 Q 576.888 67.35 576.888 62.08 L 576.888 62.08 L 576.888 62.08 Q 576.888 55.942 574.966 50.889 L 574.966 50.889 L 574.966 50.889 Q 573.044 45.836 569.138 42.829 L 569.138 42.829 L 569.138 42.829 Q 565.232 39.822 559.404 39.822 L 559.404 39.822 Z  M 636.842 34.738 L 636.842 50.238 L 634.982 50.858 L 626.736 38.644 L 619.172 38.644 L 619.172 79.874 L 625.682 82.106 L 624.442 84.586 L 605.594 84.586 L 605.594 82.664 L 611.422 78.076 L 611.422 38.644 L 604.044 38.644 L 595.798 50.858 L 593.938 50.238 L 593.938 34.738 L 597.286 35.854 L 633.494 35.854 L 636.842 34.738 Z  M 688.426 34.738 L 688.426 50.238 L 686.566 50.858 L 678.32 38.644 L 670.756 38.644 L 670.756 79.874 L 677.266 82.106 L 676.026 84.586 L 657.178 84.586 L 657.178 82.664 L 663.006 78.076 L 663.006 38.644 L 655.628 38.644 L 647.382 50.858 L 645.522 50.238 L 645.522 34.738 L 648.87 35.854 L 685.078 35.854 L 688.426 34.738 Z  M 737.034 85.702 L 733.686 84.586 L 696.486 84.586 L 696.486 82.664 L 702.314 78.076 L 702.314 40.504 L 695.866 38.334 L 697.106 35.854 L 733.066 35.854 L 736.414 34.738 L 736.414 48.998 L 734.554 49.618 L 727.176 38.644 L 710.064 38.644 L 710.064 58.298 L 719.798 58.298 L 724.324 50.362 L 726.246 50.362 L 726.246 69.21 L 723.766 70.45 L 719.86 61.088 L 710.064 61.088 L 710.064 81.796 L 726.928 81.796 L 735.174 69.582 L 737.034 70.202 L 737.034 85.702 Z  M 793.454 82.23 L 792.214 84.71 L 780.682 84.71 L 767.042 62.7 L 764.128 60.592 L 765.058 58.732 L 768.53 58.732 L 768.53 58.732 Q 772.746 58.732 775.195 56.593 L 775.195 56.593 L 775.195 56.593 Q 777.644 54.454 777.644 50.734 L 777.644 50.734 L 777.644 50.734 Q 777.644 45.836 774.916 42.581 L 774.916 42.581 L 774.916 42.581 Q 772.188 39.326 766.98 39.326 L 766.98 39.326 L 766.98 39.326 Q 763.508 39.326 760.594 41.372 L 760.594 41.372 L 760.594 79.998 L 767.104 82.23 L 765.864 84.71 L 747.016 84.71 L 747.016 82.788 L 752.844 78.2 L 752.844 40.504 L 746.396 38.396 L 747.636 35.916 L 754.828 35.916 L 754.828 35.916 Q 760.47 35.916 765.926 35.544 L 765.926 35.544 L 765.926 35.544 Q 769.894 35.296 771.816 35.296 L 771.816 35.296 L 771.816 35.296 Q 775.97 35.296 779.225 36.97 L 779.225 36.97 L 779.225 36.97 Q 782.48 38.644 784.247 41.496 L 784.247 41.496 L 784.247 41.496 Q 786.014 44.348 786.014 47.758 L 786.014 47.758 L 786.014 47.758 Q 786.014 50.858 784.092 53.679 L 784.092 53.679 L 784.092 53.679 Q 782.17 56.5 779.039 58.577 L 779.039 58.577 L 779.039 58.577 Q 775.908 60.654 772.436 61.708 L 772.436 61.708 L 776.466 63.072 L 786.076 78.572 L 793.454 82.23 Z " fill="rgb(0,0,0)"/><path d=" M 459.5 26.365 L 459.5 26.365 Q 461.885 26.365 465.013 27.04 L 465.013 27.04 L 465.013 27.04 Q 468.14 27.715 469.58 28.48 L 469.58 28.48 L 469.58 37.21 L 467.87 37.21 L 467.87 37.21 Q 463.73 30.145 456.89 30.145 L 456.89 30.145 L 456.89 30.145 Q 453.92 30.145 451.468 31.877 L 451.468 31.877 L 451.468 31.877 Q 449.015 33.61 447.62 36.692 L 447.62 36.692 L 447.62 36.692 Q 446.225 39.775 446.225 43.6 L 446.225 43.6 L 446.225 43.6 Q 446.225 48.01 447.598 51.655 L 447.598 51.655 L 447.598 51.655 Q 448.97 55.3 451.783 57.505 L 451.783 57.505 L 451.783 57.505 Q 454.595 59.71 458.735 59.71 L 458.735 59.71 L 458.735 59.71 Q 462.56 59.71 469.715 53.95 L 469.715 53.95 L 471.065 56.11 L 462.785 62.545 L 462.785 62.545 Q 461.12 63.13 459.568 63.332 L 459.568 63.332 L 459.568 63.332 Q 458.015 63.535 456.215 63.535 L 456.215 63.535 L 456.215 63.535 Q 451.49 63.535 447.845 61.24 L 447.845 61.24 L 447.845 61.24 Q 444.2 58.945 442.175 54.917 L 442.175 54.917 L 442.175 54.917 Q 440.15 50.89 440.15 45.76 L 440.15 45.76 L 440.15 45.76 Q 440.15 40.495 443.21 36.017 L 443.21 36.017 L 443.21 36.017 Q 446.27 31.54 450.815 28.952 L 450.815 28.952 L 450.815 28.952 Q 455.36 26.365 459.5 26.365 L 459.5 26.365 Z " fill="rgb(0,0,0)"/></g></svg>